<svg width="284" height="195" viewBox="0 0 284 195" fill="none" xmlns="http://www.w3.org/2000/svg">
<g clip-path="url(#clip0_2565_1459)">
<path d="M249.088 74.5719C249.01 74.572 248.933 74.5482 248.869 74.5037L143.098 1.10218C142.776 0.879843 142.393 0.761023 142.002 0.761689C141.61 0.762355 141.228 0.882472 140.907 1.1059L35.8971 74.5029C35.8141 74.561 35.7113 74.5838 35.6113 74.5663C35.5114 74.5488 35.4225 74.4925 35.3643 74.4097C35.306 74.327 35.2831 74.2245 35.3007 74.125C35.3182 74.0254 35.3747 73.9368 35.4578 73.8788L140.468 0.481771C140.917 0.16902 141.452 0.000901542 142 3.61573e-06C142.549 -0.00089431 143.084 0.16547 143.535 0.476747L249.307 73.878C249.373 73.9244 249.424 73.9909 249.45 74.0677C249.476 74.1445 249.477 74.2276 249.453 74.3051C249.428 74.3825 249.38 74.4501 249.314 74.4981C249.248 74.5461 249.169 74.572 249.088 74.5719Z" fill="#3F3D56"/>
<path d="M41.8975 77.1738L142.106 3.17041L243.074 82.4395L147.269 139.033L95.2547 127.219L41.8975 77.1738Z" fill="#EBEBEB"/>
<path d="M143.515 118.393C143.139 118.393 142.766 118.32 142.418 118.178L80.6162 92.6261V12.6428C80.617 11.9355 80.8994 11.2575 81.4012 10.7574C81.9031 10.2572 82.5836 9.97592 83.2934 9.9751H201.855C202.565 9.97592 203.245 10.2572 203.747 10.7574C204.249 11.2575 204.531 11.9355 204.532 12.6428V92.6819L204.416 92.7314L144.645 118.166C144.288 118.316 143.903 118.393 143.515 118.393Z" fill="white"/>
<path d="M143.515 118.583C143.114 118.584 142.716 118.506 142.345 118.355L80.4248 92.7535V12.6429C80.4257 11.8851 80.7282 11.1586 81.2659 10.6228C81.8036 10.0869 82.5327 9.78553 83.2932 9.78467H201.855C202.615 9.78553 203.344 10.0869 203.882 10.6228C204.42 11.1586 204.722 11.8851 204.723 12.6429V92.8078L144.72 118.341C144.339 118.501 143.929 118.584 143.515 118.583ZM81.1897 92.2444L142.636 117.65C143.209 117.882 143.851 117.878 144.422 117.64L203.958 92.3047V12.6429C203.957 12.0872 203.736 11.5545 203.341 11.1615C202.947 10.7686 202.412 10.5475 201.855 10.5469H83.2932C82.7356 10.5475 82.2009 10.7686 81.8066 11.1615C81.4122 11.5545 81.1904 12.0872 81.1897 12.6429L81.1897 92.2444Z" fill="black"/>
<path d="M248.323 73.8098H248.246L204.34 92.4914L144.268 118.052C144.033 118.15 143.781 118.202 143.527 118.203C143.272 118.204 143.02 118.155 142.784 118.06L80.807 92.4381L35.8225 73.8403L35.7538 73.8098H35.6772C34.9674 73.8106 34.2869 74.0919 33.785 74.592C33.2831 75.0922 33.0008 75.7702 33 76.4775V192.332C33.0008 193.04 33.2831 193.718 33.785 194.218C34.2869 194.718 34.9674 194.999 35.6772 195H248.323C249.033 194.999 249.713 194.718 250.215 194.218C250.717 193.718 250.999 193.04 251 192.332V76.4775C250.999 75.7702 250.717 75.0922 250.215 74.592C249.713 74.0919 249.033 73.8106 248.323 73.8098ZM250.235 192.332C250.235 192.838 250.033 193.322 249.675 193.68C249.316 194.037 248.83 194.238 248.323 194.238H35.6772C35.1701 194.238 34.6838 194.037 34.3252 193.68C33.9667 193.322 33.7651 192.838 33.7649 192.332V76.4775C33.7656 75.9848 33.9574 75.5113 34.3003 75.1562C34.6431 74.8011 35.1104 74.5918 35.6045 74.572L80.807 93.2612L142.49 118.765C143.157 119.035 143.906 119.031 144.57 118.753L204.34 93.3184L248.399 74.572C248.893 74.5932 249.359 74.8031 249.701 75.1581C250.043 75.513 250.234 75.9856 250.235 76.4775V192.332Z" fill="black"/>
<path d="M138.444 89C136.758 89.0031 135.116 88.4579 133.766 87.4464L133.683 87.3836L116.066 73.8984C115.251 73.2734 114.566 72.4939 114.051 71.6043C113.537 70.7148 113.203 69.7326 113.068 68.7138C112.933 67.6951 113 66.6598 113.265 65.667C113.531 64.6743 113.989 63.7435 114.614 62.9278C115.239 62.1121 116.019 61.4275 116.908 60.913C117.798 60.3986 118.781 60.0644 119.799 59.9296C120.818 59.7947 121.854 59.8618 122.847 60.1271C123.84 60.3924 124.771 60.8506 125.587 61.4755L136.997 70.2234L163.962 35.0637C164.587 34.2482 165.367 33.5639 166.257 33.0497C167.147 32.5356 168.129 32.2018 169.148 32.0673C170.167 31.9328 171.203 32.0003 172.196 32.266C173.189 32.5316 174.119 32.9902 174.935 33.6155L174.767 33.8431L174.939 33.6188C176.585 34.883 177.661 36.7481 177.933 38.8049C178.204 40.8617 177.649 42.9422 176.388 44.59L144.671 85.9461C143.937 86.8991 142.994 87.6704 141.914 88.2C140.834 88.7296 139.647 89.0033 138.444 89Z" fill="#EE7D12"/>
</g>
<defs>
<clipPath id="clip0_2565_1459">
<rect width="218" height="195" fill="white" transform="translate(33)"/>
</clipPath>
</defs>
</svg>
