<svg width="228" height="193" viewBox="0 0 228 193" fill="none" xmlns="http://www.w3.org/2000/svg">
<g clip-path="url(#clip0_2565_2009)">
<path d="M175.71 186.503L172.484 187.568L166.835 175.643L171.597 174.071L175.71 186.503Z" fill="#FFB8B8"/>
<path d="M169.874 187.408L176.096 185.354L177.391 189.268L167.251 192.616C167.081 192.102 167.014 191.56 167.054 191.02C167.094 190.48 167.24 189.953 167.483 189.47C167.727 188.986 168.063 188.555 168.474 188.201C168.884 187.848 169.36 187.578 169.874 187.408Z" fill="black"/>
<path d="M154.425 189.464L151.027 189.463L149.411 176.369L154.426 176.37L154.425 189.464Z" fill="#FFB8B8"/>
<path d="M148.6 188.494H155.153V192.616H144.474C144.474 192.074 144.58 191.538 144.788 191.038C144.995 190.538 145.299 190.084 145.682 189.701C146.065 189.318 146.52 189.015 147.021 188.807C147.521 188.6 148.058 188.494 148.6 188.494Z" fill="black"/>
<path d="M151.285 140.857L151.111 141.623C148.77 151.981 147.936 167.054 148.636 177.65L149.176 185.836C149.194 186.116 149.319 186.379 149.524 186.571C149.73 186.764 150.001 186.87 150.282 186.87H154.356C154.627 186.87 154.89 186.771 155.093 186.59C155.296 186.41 155.425 186.162 155.457 185.892L158.619 159.043C158.648 158.791 158.763 158.557 158.945 158.38C159.126 158.203 159.363 158.093 159.615 158.069C159.868 158.045 160.121 158.109 160.332 158.249C160.544 158.389 160.701 158.597 160.777 158.838L168.972 183.102C169.039 183.314 169.169 183.502 169.345 183.64C169.521 183.778 169.734 183.859 169.957 183.873L176.18 184.274C176.36 184.286 176.54 184.254 176.704 184.18C176.868 184.107 177.012 183.995 177.123 183.853C177.235 183.712 177.31 183.546 177.342 183.369C177.374 183.192 177.363 183.01 177.31 182.838L173.564 172.549C170.67 163.315 169.114 149.284 168.944 139.609C168.941 139.457 168.907 139.306 168.843 139.168C168.78 139.029 168.688 138.905 168.574 138.803C168.46 138.701 168.326 138.624 168.181 138.576C168.036 138.529 167.882 138.512 167.73 138.526L152.261 139.998C152.028 140.02 151.809 140.115 151.633 140.269C151.458 140.424 151.336 140.629 151.285 140.857Z" fill="black"/>
<path d="M160.343 97.8451C164.102 97.8451 167.15 94.8002 167.15 91.0441C167.15 87.2881 164.102 84.2432 160.343 84.2432C156.583 84.2432 153.535 87.2881 153.535 91.0441C153.535 94.8002 156.583 97.8451 160.343 97.8451Z" fill="#A0616A"/>
<path d="M155.874 143.085C154.518 143.082 153.163 143.011 151.815 142.871C151.382 142.824 150.984 142.609 150.707 142.273C150.43 141.937 150.296 141.506 150.333 141.072L152.654 118.669C153.213 112.333 154.078 106.216 158.453 101.035C158.602 100.86 158.785 100.717 158.992 100.615C159.198 100.514 159.424 100.456 159.654 100.446L159.818 100.44C161.544 100.368 162.339 100.431 162.563 100.655L163.767 101.84C171.107 107.263 171.412 141.62 169.604 140.943C169.254 140.812 165.076 140.943 164.786 141.141C162.428 142.747 158.638 143.085 155.874 143.085Z" fill="#EE7D12"/>
<path d="M129.164 130.65C129.338 130.281 129.59 129.955 129.903 129.695C130.216 129.434 130.582 129.245 130.976 129.141C131.37 129.038 131.782 129.021 132.183 129.094C132.584 129.166 132.964 129.326 133.297 129.561L141.352 123.804L141.548 128.942L133.868 133.621C133.436 134.153 132.823 134.508 132.146 134.619C131.469 134.73 130.775 134.589 130.195 134.223C129.615 133.856 129.19 133.29 129 132.632C128.81 131.973 128.869 131.268 129.164 130.65Z" fill="#A0616A"/>
<path d="M137.165 132.169L134.437 127.37L159.289 109.467C159.85 109.063 160.488 108.779 161.164 108.633C161.84 108.486 162.538 108.481 163.216 108.616C163.894 108.752 164.537 109.025 165.104 109.42C165.672 109.815 166.152 110.322 166.514 110.911C166.876 111.499 167.113 112.156 167.209 112.84C167.306 113.524 167.26 114.22 167.075 114.886C166.89 115.552 166.57 116.172 166.134 116.708C165.699 117.245 165.157 117.685 164.543 118.003L137.165 132.169Z" fill="#EE7D12"/>
<path d="M163.401 96.7942C163.632 97.0213 163.936 97.1577 164.26 97.1784C164.583 97.1991 164.902 97.1026 165.16 96.9068C166.764 95.7186 168.173 94.2396 169.006 92.4357C169.962 90.3686 170.068 87.8321 168.917 85.8675C167.943 84.2068 166.224 83.1351 164.511 82.2551C163.846 81.88 163.129 81.6041 162.384 81.4361C161.631 81.2701 160.843 81.3972 160.18 81.7914C159.856 81.9944 159.6 82.2904 159.447 82.6407C159.294 82.9909 159.25 83.3792 159.321 83.7548C158.498 82.8168 157.444 82.1099 156.263 81.7042C155.519 81.4137 154.705 81.3547 153.928 81.5351C152.84 81.8432 152.047 82.8082 151.613 83.8506C151.261 84.6435 151.14 85.5189 151.263 86.3773C151.327 86.8044 151.481 87.2133 151.713 87.5774C151.946 87.9416 152.252 88.253 152.613 88.4913C153.512 89.047 154.658 89.0069 155.691 88.7799C156.723 88.5529 157.722 88.1581 158.774 88.0582C159.827 87.9584 160.999 88.2205 161.639 89.0607C162.09 89.6523 162.206 90.4254 162.307 91.1621L162.834 94.9942C162.877 95.5485 163.018 96.0907 163.252 96.5953C163.293 96.668 163.343 96.7349 163.401 96.7942Z" fill="black"/>
<path d="M178.089 144.446C177.759 144.208 177.485 143.9 177.286 143.544C177.088 143.189 176.97 142.794 176.941 142.388C176.912 141.982 176.972 141.575 177.118 141.194C177.264 140.814 177.491 140.47 177.784 140.187L173.613 131.212L178.704 131.973L181.884 140.379C182.327 140.902 182.563 141.569 182.546 142.255C182.53 142.94 182.262 143.595 181.795 144.096C181.327 144.598 180.691 144.91 180.008 144.975C179.325 145.039 178.642 144.851 178.089 144.446Z" fill="#A0616A"/>
<path d="M180.878 134.912L176.075 137.638L158.155 112.809C157.75 112.249 157.466 111.611 157.319 110.936C157.173 110.261 157.167 109.563 157.303 108.886C157.438 108.209 157.712 107.566 158.107 107C158.503 106.433 159.011 105.953 159.6 105.592C160.189 105.23 160.846 104.993 161.531 104.897C162.215 104.8 162.912 104.846 163.579 105.031C164.245 105.215 164.866 105.535 165.403 105.971C165.94 106.406 166.381 106.947 166.699 107.561L180.878 134.912Z" fill="#EE7D12"/>
<path d="M137.131 45.767H136.071V16.7785C136.071 12.3285 134.302 8.06087 131.152 4.9143C128.003 1.76773 123.731 2.20316e-06 119.277 0H57.7995C53.3453 0 49.0735 1.76772 45.9239 4.9143C42.7743 8.06087 41.0049 12.3285 41.0049 16.7785V175.815C41.0049 180.265 42.7743 184.532 45.9239 187.679C49.0735 190.825 53.3453 192.593 57.7995 192.593H119.277C123.731 192.593 128.003 190.825 131.152 187.679C134.302 184.532 136.071 180.265 136.071 175.815V66.4016H137.13L137.131 45.767Z" fill="#EBEBEB"/>
<path d="M119.955 4.36353H111.93C112.3 5.26747 112.44 6.24822 112.341 7.21937C112.241 8.19051 111.904 9.12225 111.359 9.93249C110.813 10.7427 110.077 11.4066 109.215 11.8656C108.352 12.3246 107.39 12.5647 106.413 12.5646H71.1933C70.2162 12.5646 69.254 12.3245 68.3917 11.8654C67.5293 11.4064 66.7931 10.7425 66.2481 9.93227C65.703 9.12205 65.3658 8.19035 65.2661 7.21924C65.1664 6.24813 65.3072 5.26743 65.6763 4.36353H58.1812C54.8548 4.36353 51.6647 5.68365 49.3126 8.03347C46.9606 10.3833 45.6392 13.5704 45.6392 16.8935V175.699C45.6392 179.022 46.9606 182.209 49.3126 184.559C51.6647 186.909 54.8548 188.229 58.1812 188.229H119.955C123.281 188.229 126.471 186.909 128.823 184.559C131.175 182.209 132.497 179.022 132.497 175.699V16.8933C132.497 13.5701 131.175 10.3832 128.823 8.03338C126.471 5.68361 123.281 4.36352 119.955 4.36353Z" fill="white"/>
<path d="M89.0679 98.2999C83.312 98.2999 77.6853 96.5947 72.8994 93.3999C68.1135 90.2052 64.3833 85.6643 62.1806 80.3516C59.9779 75.0389 59.4016 69.193 60.5245 63.5531C61.6475 57.9132 64.4192 52.7326 68.4893 48.6664C72.5594 44.6002 77.7449 41.8312 83.3903 40.7093C89.0356 39.5875 94.8872 40.1632 100.205 42.3638C105.523 44.5644 110.068 48.291 113.266 53.0723C116.464 57.8536 118.17 63.4748 118.17 69.2253C118.162 76.9336 115.093 84.3238 109.637 89.7745C104.181 95.2251 96.7837 98.2911 89.0679 98.2999ZM89.0679 40.7044C83.4216 40.7044 77.9021 42.3772 73.2074 45.5111C68.5126 48.645 64.8535 53.0993 62.6928 58.3108C60.532 63.5223 59.9667 69.2569 61.0682 74.7894C62.1698 80.3219 64.8887 85.4038 68.8813 89.3925C72.8738 93.3812 77.9606 96.0976 83.4984 97.198C89.0362 98.2985 94.7763 97.7337 99.9928 95.575C105.209 93.4164 109.668 89.7608 112.805 85.0706C115.942 80.3803 117.616 74.8661 117.616 69.2253C117.608 61.6637 114.597 54.4143 109.245 49.0674C103.893 43.7206 96.6367 40.713 89.0679 40.7044Z" fill="#3F3D56"/>
<path d="M99.7567 60.7792C102.249 58.6751 103.763 55.3513 103.366 52.1156C102.969 48.8798 100.51 45.9052 97.3201 45.218C94.1303 44.5309 90.4941 46.433 89.5253 49.5459C88.9921 43.5443 88.3777 37.2911 85.1837 32.1801C82.2917 27.5522 77.2826 24.2408 71.8539 23.6484C66.4252 23.056 60.7095 25.2934 57.3238 29.5741C53.9381 33.8548 53.1091 40.0781 55.4804 44.9926C57.2272 48.6131 60.4454 51.3074 63.8174 53.4994C74.5749 60.4926 87.9197 62.8554 100.617 60.9885L99.7567 60.7792Z" fill="#EBEBEB"/>
<path d="M62.692 25.4175C67.1714 29.0625 71.2807 33.1391 74.9606 37.5885C80.7196 44.5278 85.3798 52.3081 88.779 60.6582C89.0278 61.2673 88.0377 61.5325 87.7916 60.9301C82.2301 47.3594 73.3515 35.3983 61.968 26.1408C61.4568 25.725 62.1851 25.0051 62.692 25.4175Z" fill="white"/>
<path d="M64.2163 126.821C65.9001 126.821 67.2652 125.457 67.2652 123.775C67.2652 122.092 65.9001 120.729 64.2163 120.729C62.5325 120.729 61.1675 122.092 61.1675 123.775C61.1675 125.457 62.5325 126.821 64.2163 126.821Z" fill="#202050"/>
<path d="M114.751 125.99H75.9473C75.3592 125.99 74.7953 125.757 74.3794 125.341C73.9636 124.926 73.73 124.362 73.73 123.775C73.73 123.187 73.9636 122.624 74.3794 122.208C74.7953 121.793 75.3592 121.56 75.9473 121.56H114.751C115.339 121.56 115.903 121.793 116.319 122.208C116.734 122.624 116.968 123.187 116.968 123.775C116.968 124.362 116.734 124.926 116.319 125.341C115.903 125.757 115.339 125.99 114.751 125.99Z" fill="#CCCCCC"/>
<path d="M102.716 126.017H75.787C75.1919 126.017 74.6211 125.78 74.2002 125.36C73.7794 124.939 73.543 124.369 73.543 123.775C73.543 123.18 73.7794 122.61 74.2002 122.189C74.6211 121.769 75.1919 121.533 75.787 121.533H102.716C103.311 121.533 103.882 121.769 104.303 122.189C104.724 122.61 104.96 123.18 104.96 123.775C104.96 124.369 104.724 124.939 104.303 125.36C103.882 125.78 103.311 126.017 102.716 126.017Z" fill="#5392FC"/>
<path d="M64.2163 140.112C65.9001 140.112 67.2652 138.748 67.2652 137.066C67.2652 135.384 65.9001 134.02 64.2163 134.02C62.5325 134.02 61.1675 135.384 61.1675 137.066C61.1675 138.748 62.5325 140.112 64.2163 140.112Z" fill="#202050"/>
<path d="M114.751 139.281H75.9473C75.3592 139.281 74.7953 139.048 74.3794 138.632C73.9636 138.217 73.73 137.654 73.73 137.066C73.73 136.479 73.9636 135.915 74.3794 135.5C74.7953 135.084 75.3592 134.851 75.9473 134.851H114.751C115.339 134.851 115.903 135.084 116.319 135.5C116.734 135.915 116.968 136.479 116.968 137.066C116.968 137.654 116.734 138.217 116.319 138.632C115.903 139.048 115.339 139.281 114.751 139.281Z" fill="#CCCCCC"/>
<path d="M64.2163 153.403C65.9001 153.403 67.2652 152.039 67.2652 150.357C67.2652 148.675 65.9001 147.311 64.2163 147.311C62.5325 147.311 61.1675 148.675 61.1675 150.357C61.1675 152.039 62.5325 153.403 64.2163 153.403Z" fill="#202050"/>
<path d="M114.751 152.573H75.9473C75.3592 152.573 74.7953 152.339 74.3794 151.924C73.9636 151.508 73.73 150.945 73.73 150.357C73.73 149.77 73.9636 149.206 74.3794 148.791C74.7953 148.375 75.3592 148.142 75.9473 148.142H114.751C115.339 148.142 115.903 148.375 116.319 148.791C116.734 149.206 116.968 149.77 116.968 150.357C116.968 150.945 116.734 151.508 116.319 151.924C115.903 152.339 115.339 152.573 114.751 152.573Z" fill="#CCCCCC"/>
<path d="M93.8466 139.308H75.787C75.1919 139.308 74.6211 139.072 74.2002 138.651C73.7794 138.231 73.543 137.66 73.543 137.066C73.543 136.471 73.7794 135.901 74.2002 135.481C74.6211 135.06 75.1919 134.824 75.787 134.824H93.8466C94.4417 134.824 95.0125 135.06 95.4334 135.481C95.8542 135.901 96.0907 136.471 96.0907 137.066C96.0907 137.66 95.8542 138.231 95.4334 138.651C95.0125 139.072 94.4417 139.308 93.8466 139.308Z" fill="#5392FC"/>
<path d="M109.922 152.599H75.787C75.1919 152.599 74.6211 152.363 74.2002 151.942C73.7794 151.522 73.543 150.952 73.543 150.357C73.543 149.763 73.7794 149.192 74.2002 148.772C74.6211 148.351 75.1919 148.115 75.787 148.115H109.922C110.517 148.115 111.088 148.351 111.509 148.772C111.93 149.192 112.166 149.763 112.166 150.357C112.166 150.952 111.93 151.522 111.509 151.942C111.088 152.363 110.517 152.599 109.922 152.599Z" fill="#5392FC"/>
<path d="M104.476 64.7043H100.667V53.4582C100.667 53.1279 100.799 52.8111 101.033 52.5775C101.267 52.3439 101.584 52.2125 101.914 52.2122H103.229C103.56 52.2125 103.877 52.3439 104.111 52.5775C104.345 52.8111 104.476 53.1279 104.476 53.4582V64.7043Z" fill="#3F3D56"/>
<path d="M106.786 83.8418H70.372L70.2412 63.3382C70.2399 63.0215 70.3022 62.7077 70.4245 62.4155C70.5468 62.1233 70.7266 61.8586 70.9532 61.6371L80.1008 52.7358C80.5348 52.3121 81.1162 52.0728 81.723 52.0683L97.0331 51.9285C97.3803 51.9264 97.7237 52.0004 98.039 52.1454C98.3544 52.2904 98.634 52.5028 98.8582 52.7676L98.8595 52.7692L106.131 61.6786C106.554 62.1978 106.785 62.8465 106.786 63.5159L106.786 83.8418Z" fill="#202050"/>
<path d="M106.786 83.8419H87.2173V65.4665C87.2175 64.9067 87.4172 64.3652 87.7808 63.9391L96.2831 53.9805C96.504 53.7212 96.7788 53.5132 97.0883 53.3705C97.3978 53.2278 97.7346 53.154 98.0755 53.1543H98.0844C98.4268 53.1553 98.7648 53.231 99.0748 53.376C99.3849 53.5211 99.6595 53.732 99.8795 53.9941L106.234 61.5518C106.59 61.976 106.786 62.5119 106.786 63.0657V83.8419Z" fill="#5392FC"/>
<path d="M98.4851 76.7841H95.6539C95.4701 76.7839 95.294 76.7109 95.1641 76.5811C95.0342 76.4513 94.9612 76.2754 94.9609 76.0918V73.7203C94.9612 73.5368 95.0342 73.3608 95.1641 73.2311C95.294 73.1013 95.4701 73.0283 95.6539 73.0281H98.4851C98.6688 73.0283 98.8449 73.1013 98.9748 73.2311C99.1047 73.3608 99.1778 73.5368 99.178 73.7203V76.0918C99.1778 76.2754 99.1047 76.4513 98.9748 76.5811C98.8449 76.7109 98.6688 76.7839 98.4851 76.7841Z" fill="white"/>
<path d="M98.4851 70.7072H95.6539C95.4701 70.707 95.294 70.634 95.1641 70.5042C95.0342 70.3744 94.9612 70.1985 94.9609 70.0149V67.6986C94.9612 67.5151 95.0342 67.3391 95.1641 67.2093C95.294 67.0796 95.4701 67.0066 95.6539 67.0063H98.4851C98.6688 67.0066 98.8449 67.0796 98.9748 67.2093C99.1047 67.3391 99.1778 67.5151 99.178 67.6986V70.0149C99.1778 70.1985 99.1047 70.3744 98.9748 70.5042C98.8449 70.634 98.6688 70.707 98.4851 70.7072Z" fill="white"/>
<path d="M80.9762 75.8609H78.1451C77.9614 75.8606 77.7852 75.7876 77.6553 75.6579C77.5254 75.5281 77.4524 75.3521 77.4521 75.1686V72.7972C77.4524 72.6137 77.5254 72.4378 77.6553 72.308C77.7852 72.1782 77.9614 72.1052 78.1451 72.105H80.9762C81.1599 72.1052 81.336 72.1782 81.4659 72.308C81.5958 72.4378 81.6689 72.6137 81.6691 72.7972V75.1686C81.6689 75.3521 81.5958 75.5281 81.4659 75.6579C81.336 75.7876 81.1599 75.8606 80.9762 75.8609Z" fill="white"/>
<path d="M80.9762 69.784H78.1451C77.9614 69.7837 77.7852 69.7107 77.6553 69.581C77.5254 69.4512 77.4524 69.2752 77.4521 69.0917V66.7755C77.4524 66.592 77.5254 66.416 77.6553 66.2862C77.7852 66.1565 77.9614 66.0835 78.1451 66.0833H80.9762C81.1599 66.0835 81.336 66.1565 81.4659 66.2862C81.5958 66.416 81.6689 66.592 81.6691 66.7755V69.0917C81.6689 69.2752 81.5958 69.4512 81.4659 69.581C81.336 69.7107 81.1599 69.7837 80.9762 69.784Z" fill="white"/>
<path d="M113.833 84.0816H64.3026C64.229 84.0816 64.1585 84.0525 64.1066 84.0005C64.0546 83.9486 64.0254 83.8782 64.0254 83.8047C64.0254 83.7313 64.0546 83.6609 64.1066 83.6089C64.1585 83.557 64.229 83.5278 64.3026 83.5278H113.833C113.907 83.5278 113.977 83.557 114.029 83.6089C114.081 83.6609 114.11 83.7313 114.11 83.8047C114.11 83.8782 114.081 83.9486 114.029 84.0005C113.977 84.0525 113.907 84.0816 113.833 84.0816Z" fill="#3F3D56"/>
<path d="M227.223 193H0.777167C0.703658 193 0.633159 192.971 0.58118 192.919C0.529201 192.867 0.5 192.797 0.5 192.723C0.5 192.65 0.529201 192.579 0.58118 192.527C0.633159 192.475 0.703658 192.446 0.777167 192.446H227.223C227.296 192.446 227.367 192.475 227.419 192.527C227.471 192.579 227.5 192.65 227.5 192.723C227.5 192.797 227.471 192.867 227.419 192.919C227.367 192.971 227.296 193 227.223 193Z" fill="black"/>
</g>
<defs>
<clipPath id="clip0_2565_2009">
<rect width="227" height="193" fill="white" transform="translate(0.5)"/>
</clipPath>
</defs>
</svg>
