<svg width="274" height="137" viewBox="0 0 274 137" fill="none" xmlns="http://www.w3.org/2000/svg">
<g clip-path="url(#clip0_2565_1649)">
<path d="M74.8108 112.05C82.2493 112.05 88.2794 106 88.2794 98.5368C88.2794 91.0737 82.2493 85.0237 74.8108 85.0237C67.3724 85.0237 61.3423 91.0737 61.3423 98.5368C61.3423 106 67.3724 112.05 74.8108 112.05Z" fill="#EBEBEB"/>
<path opacity="0.2" d="M64.8664 89.511C63.6101 92.4595 63.4397 95.7601 64.3856 98.823C65.3315 101.886 67.3321 104.512 70.0299 106.231C72.7278 107.95 75.947 108.651 79.1124 108.208C82.2778 107.765 85.183 106.207 87.309 103.813C86.5416 105.614 85.3929 107.227 83.9427 108.539C82.4925 109.85 80.7753 110.83 78.9102 111.41C77.0451 111.99 75.0767 112.156 73.1413 111.897C71.2058 111.638 69.3497 110.959 67.7015 109.909C66.0533 108.859 64.6524 107.461 63.5958 105.814C62.5393 104.166 61.8524 102.308 61.5827 100.368C61.313 98.4274 61.467 96.4515 62.034 94.5769C62.601 92.7022 63.5675 90.9737 64.8664 89.511Z" fill="black"/>
<path d="M74.8483 98.5369H74.885L75.5512 136.849H74.145L74.8483 98.5369Z" fill="black"/>
<path d="M47.5603 86.8498C62.5577 86.8498 74.7154 74.6518 74.7154 59.6048C74.7154 44.5579 62.5577 32.3599 47.5603 32.3599C32.563 32.3599 20.4053 44.5579 20.4053 59.6048C20.4053 74.6518 32.563 86.8498 47.5603 86.8498Z" fill="#EBEBEB"/>
<path opacity="0.2" d="M27.5098 41.4072C24.9768 47.3519 24.6332 54.0065 26.5403 60.1819C28.4475 66.3574 32.4811 71.6512 37.9204 75.1175C43.3597 78.5838 49.8502 79.9967 56.2322 79.1036C62.6142 78.2105 68.4717 75.0698 72.7581 70.2425C71.2108 73.8745 68.895 77.1255 65.9711 79.7703C63.0471 82.4151 59.585 84.3905 55.8247 85.5596C52.0643 86.7287 48.0955 87.0636 44.1933 86.541C40.2912 86.0185 36.5489 84.6509 33.2257 82.5332C29.9026 80.4155 27.0781 77.5982 24.948 74.2766C22.8178 70.9549 21.4329 67.2083 20.8892 63.2964C20.3455 59.3844 20.6559 55.4006 21.7991 51.621C22.9423 47.8414 24.8909 44.3563 27.5098 41.4072Z" fill="black"/>
<path d="M47.6346 59.6047H47.7094L49.0522 136.849H46.2173L47.6346 59.6047Z" fill="black"/>
<path d="M226.594 96.8677H102.127V133.887H226.594V96.8677Z" fill="#F0F0F0"/>
<path d="M171.617 104.518H157.104V133.887H171.617V104.518Z" fill="#D4D4D4"/>
<path d="M219.338 53.1848H109.384V87.2428H219.338V53.1848Z" fill="#F0F0F0"/>
<path d="M230.485 55.2825H98.2363C98.0155 55.2825 97.7998 55.2162 97.6168 55.0922C97.4338 54.9683 97.292 54.7922 97.2095 54.5867C97.127 54.3812 97.1077 54.1557 97.154 53.9391C97.2003 53.7225 97.31 53.5248 97.4692 53.3712L133.613 18.5146V3.33176C133.613 3.03732 133.73 2.75503 133.938 2.54682C134.145 2.33862 134.426 2.22151 134.72 2.22117H141.853C142.147 2.2215 142.428 2.33861 142.636 2.54681C142.843 2.75502 142.96 3.03731 142.96 3.33176V9.50023L145.69 6.86741C150.158 2.55905 156.085 0.106774 162.28 0.00340541C168.476 -0.0999631 174.481 2.15324 179.089 6.31019L231.225 53.3459C231.392 53.4962 231.509 53.6935 231.561 53.912C231.614 54.1304 231.599 54.3597 231.519 54.5694C231.438 54.7792 231.297 54.9597 231.112 55.087C230.928 55.2143 230.709 55.2824 230.485 55.2825Z" fill="#D4D4D4"/>
<path d="M138.409 61.8225C139.33 61.8225 140.242 62.0044 141.092 62.3579C141.943 62.7114 142.716 63.2295 143.367 63.8826C144.018 64.5358 144.534 65.3112 144.886 66.1645C145.239 67.0179 145.42 67.9325 145.42 68.8562V78.3579H131.399V68.8562C131.399 67.9325 131.58 67.0179 131.933 66.1645C132.285 65.3112 132.801 64.5358 133.452 63.8826C134.103 63.2295 134.876 62.7114 135.727 62.3579C136.577 62.0044 137.489 61.8225 138.409 61.8225Z" fill="white"/>
<path d="M164.361 61.946C166.22 61.946 168.003 62.6871 169.318 64.0062C170.632 65.3252 171.371 67.1143 171.371 68.9797V78.4814H157.35V68.9797C157.35 67.1143 158.089 65.3252 159.403 64.0062C160.718 62.6871 162.501 61.946 164.361 61.946Z" fill="white"/>
<path d="M190.312 62.0693C192.171 62.0693 193.954 62.8104 195.269 64.1295C196.584 65.4485 197.322 67.2376 197.322 69.103V78.6047H183.301V69.103C183.301 67.2376 184.04 65.4485 185.355 64.1295C186.669 62.8104 188.452 62.0693 190.312 62.0693Z" fill="white"/>
<path d="M200.643 104.148C202.503 104.148 204.286 104.889 205.6 106.208C206.915 107.527 207.654 109.316 207.654 111.182V120.684H193.633V111.182C193.633 109.316 194.371 107.527 195.686 106.208C197.001 104.889 198.784 104.148 200.643 104.148Z" fill="white"/>
<path d="M131.276 104.148C133.135 104.148 134.919 104.889 136.233 106.208C137.548 107.527 138.287 109.316 138.287 111.182V120.684H124.266V111.182C124.266 110.258 124.447 109.344 124.799 108.49C125.152 107.637 125.668 106.861 126.319 106.208C126.97 105.555 127.743 105.037 128.593 104.684C129.444 104.33 130.355 104.148 131.276 104.148Z" fill="white"/>
<path d="M244.779 97.4457L221.43 87.0803C221.305 87.0246 221.169 86.9958 221.032 86.9958H109.756C109.629 86.9958 109.503 87.0205 109.386 87.0685L83.9708 97.434C83.7594 97.5202 83.5845 97.6775 83.4759 97.8788C83.3673 98.0802 83.3319 98.3132 83.3757 98.5379C83.4195 98.7626 83.5397 98.965 83.7159 99.1106C83.8921 99.2561 84.1131 99.3357 84.3413 99.3357H90.9353V133.394H90.1974V136.849H238.525V133.394H237.295V99.3357H244.381C244.606 99.3357 244.825 99.2579 245 99.1153C245.175 98.9727 245.296 98.7741 245.343 98.5526C245.39 98.3311 245.359 98.1003 245.256 97.8988C245.154 97.6973 244.985 97.5373 244.779 97.4457ZM235.327 133.394H92.9032V99.3357H235.327V133.394Z" fill="#D4D4D4"/>
<path d="M147.142 77.0005H129.185V79.962H147.142V77.0005Z" fill="#D4D4D4"/>
<path d="M173.462 77.0005H155.505V79.962H173.462V77.0005Z" fill="#CACACA"/>
<path d="M199.782 77.0005H181.826V79.962H199.782V77.0005Z" fill="#CACACA"/>
<path d="M209.621 119.696H191.665V122.658H209.621V119.696Z" fill="#D4D4D4"/>
<path d="M140.008 119.696H122.052V122.658H140.008V119.696Z" fill="#D4D4D4"/>
<path d="M273.699 137H0.30143C0.221486 137 0.144816 136.968 0.0882866 136.911C0.0317575 136.855 0 136.778 0 136.697C0 136.617 0.0317575 136.54 0.0882866 136.484C0.144816 136.427 0.221486 136.395 0.30143 136.395H273.699C273.779 136.395 273.855 136.427 273.912 136.484C273.968 136.54 274 136.617 274 136.697C274 136.778 273.968 136.855 273.912 136.911C273.855 136.968 273.779 137 273.699 137Z" fill="black"/>
<path d="M204.932 52.677C204.932 52.8706 204.929 53.0671 204.926 53.2607C204.923 53.4935 204.917 53.7234 204.908 53.9562C204.899 54.1589 204.89 54.3585 204.878 54.5581C204.842 55.2265 204.785 55.8918 204.706 56.5602C204.688 56.7295 204.667 56.8959 204.643 57.0652C204.625 57.1953 204.607 57.3284 204.586 57.4614C204.565 57.6096 204.544 57.7578 204.519 57.906C204.471 58.2205 204.417 58.535 204.357 58.8496C204.327 59.0068 204.296 59.1641 204.263 59.3213C204.2 59.6328 204.131 59.9474 204.058 60.2589C204.052 60.2831 204.046 60.3103 204.04 60.3345C204.004 60.4887 203.968 60.6399 203.929 60.7942C203.917 60.8395 203.908 60.8819 203.893 60.9272C203.865 61.0422 203.835 61.1571 203.805 61.272C203.763 61.4323 203.721 61.5895 203.676 61.7498C203.603 61.9978 203.531 62.2428 203.455 62.4908C203.446 62.5166 203.438 62.5428 203.431 62.5694C203.287 63.0382 203.133 63.5009 202.964 63.9606C202.877 64.2025 202.783 64.4475 202.69 64.6894C202.596 64.9314 202.5 65.1733 202.4 65.4123C202.304 65.6451 202.205 65.878 202.105 66.1078C202.081 66.1623 202.057 66.2167 202.03 66.2711C201.924 66.51 201.816 66.7429 201.704 66.9758C201.701 66.9788 201.701 66.9849 201.698 66.9879C201.611 67.1754 201.517 67.3629 201.424 67.5474C201.424 67.553 201.422 67.5584 201.418 67.5625C201.327 67.744 201.234 67.9254 201.137 68.1038L200.984 68.3972L200.966 68.4305C200.773 68.7904 200.574 69.1472 200.363 69.5011C200.318 69.5797 200.272 69.6583 200.227 69.7339C200.182 69.8126 200.134 69.8912 200.085 69.9668C200.055 70.0212 200.022 70.0757 199.986 70.1301C199.923 70.2329 199.859 70.3388 199.793 70.4416C199.781 70.4628 199.766 70.484 199.754 70.5051C199.639 70.6835 199.525 70.859 199.41 71.0374C199.269 71.2521 199.124 71.4638 198.976 71.6755L195.703 76.9317L195.561 76.8138L195.522 76.7775H195.519L195.389 76.6686L195.033 76.3662C194.925 76.472 194.819 76.5779 194.711 76.6807C194.669 76.723 194.624 76.7624 194.581 76.8047C194.548 76.8349 194.518 76.8651 194.485 76.8954C188.826 82.4404 181.297 85.6514 173.391 85.8926H173.382C167.396 86.0575 161.472 84.6545 156.191 81.8219C156.074 81.7614 155.959 81.7009 155.845 81.6314C155.157 81.2564 154.485 80.8602 153.825 80.4368C153.822 80.4338 153.819 80.4338 153.816 80.4307C153.05 79.8864 152.303 79.3057 151.573 78.6888C147.66 75.3792 144.564 71.2051 142.528 66.4937C140.492 61.7824 139.571 56.6618 139.839 51.5337C139.848 51.3311 139.86 51.1315 139.875 50.9289C139.923 50.197 139.997 49.4681 140.098 48.7423C140.125 48.5397 140.155 48.3371 140.185 48.1375H204.625C204.752 49.0629 204.839 49.9934 204.887 50.9289C204.917 51.5127 204.932 52.0933 204.932 52.677Z" fill="#F0F0F0"/>
<path d="M204.625 48.1374C203.465 40.3969 199.575 33.331 193.662 28.2241C187.749 23.1173 180.207 20.3086 172.405 20.3086C164.603 20.3086 157.06 23.1173 151.148 28.2241C145.235 33.331 141.345 40.3969 140.185 48.1374C140.155 48.337 140.125 48.5396 140.098 48.7423C139.998 49.4681 139.924 50.1969 139.875 50.9288H204.887C204.839 49.9943 204.751 49.0638 204.625 48.1374Z" fill="#EE7D12"/>
<path d="M174.516 81.8208H155.846V66.8366C156.19 59.9887 162.024 59.4358 167.505 59.8033C168.426 59.8032 169.337 59.9851 170.188 60.3385C171.038 60.6919 171.811 61.21 172.462 61.8631C173.113 62.5162 173.63 63.2916 173.982 64.145C174.334 64.9983 174.516 65.9129 174.516 66.8366V81.8208Z" fill="#EE7D12"/>
<path d="M155.845 71.1674V71.1704C155.845 71.1735 155.848 71.1735 155.851 71.1735L155.845 71.1674ZM148.336 48.1375C148.324 48.2131 148.309 48.2887 148.297 48.3643C148.309 48.2887 148.324 48.2131 148.339 48.1375H148.336ZM147.962 50.9289C147.953 51.0439 147.944 51.1588 147.938 51.2737C147.944 51.1588 147.953 51.0439 147.965 50.9289C147.965 50.9077 147.966 50.8865 147.968 50.8654C147.965 50.8866 147.965 50.9078 147.962 50.9289ZM155.845 71.1704C155.845 71.1735 155.848 71.1735 155.851 71.1735L155.845 71.1674V71.1704ZM148.336 48.1375C148.324 48.2131 148.309 48.2887 148.297 48.3643C148.309 48.2887 148.324 48.2131 148.339 48.1375H148.336ZM147.938 51.2737C147.944 51.1588 147.953 51.0439 147.965 50.9289C147.965 50.9077 147.966 50.8865 147.968 50.8654C147.965 50.8866 147.965 50.9078 147.962 50.9289C147.953 51.0439 147.944 51.1588 147.938 51.2737ZM241.062 106.908C241.003 106.846 240.941 106.787 240.875 106.733L240.872 106.73L225.945 94.0915L225.559 93.7649L224.091 92.5219L223.724 92.2104L221.632 90.4381L221.059 89.9542L219.874 88.9502L219.269 88.4361L213.553 83.6002L210.277 80.827L209.837 80.455L200.182 72.2804C200.33 72.0687 200.474 71.857 200.616 71.6422C200.731 71.4638 200.845 71.2884 200.96 71.11C200.972 71.0888 200.987 71.0676 200.999 71.0464C201.065 70.9436 201.128 70.8378 201.192 70.735C201.228 70.6805 201.261 70.6261 201.291 70.5716C201.339 70.496 201.388 70.4174 201.433 70.3388C201.478 70.2632 201.523 70.1846 201.568 70.1059C201.78 69.7521 201.978 69.3952 202.171 69.0353L202.189 69.002L202.343 68.7087C202.44 68.5303 202.533 68.3488 202.623 68.1673C202.627 68.1632 202.629 68.1578 202.63 68.1522C202.723 67.9678 202.816 67.7803 202.904 67.5928C202.907 67.5897 202.907 67.5837 202.91 67.5807C203.021 67.3478 203.13 67.1149 203.235 66.876C203.263 66.8216 203.287 66.7671 203.311 66.7127C203.41 66.4828 203.51 66.25 203.606 66.0171C203.706 65.7782 203.802 65.5362 203.896 65.2943C203.989 65.0524 204.082 64.8074 204.17 64.5655C204.336 64.1027 204.491 63.639 204.637 63.1743C204.644 63.1477 204.652 63.1214 204.661 63.0956C204.737 62.8477 204.809 62.6027 204.881 62.3547C204.926 62.1944 204.969 62.0371 205.011 61.8769C205.041 61.7619 205.071 61.647 205.098 61.5321C205.113 61.4868 205.122 61.4444 205.134 61.399C205.174 61.2448 205.21 61.0936 205.246 60.9394C205.252 60.9151 205.258 60.8879 205.264 60.8637C205.336 60.5522 205.406 60.2377 205.469 59.9262C205.502 59.769 205.532 59.6117 205.562 59.4544C205.62 59.1399 205.677 58.8254 205.725 58.5108C205.749 58.3627 205.77 58.2145 205.792 58.0663C205.813 57.9332 205.831 57.8001 205.849 57.6701C205.873 57.5007 205.894 57.3344 205.912 57.165C205.99 56.4967 206.048 55.8313 206.084 55.1629C206.096 54.9634 206.105 54.7637 206.114 54.5611C206.123 54.3283 206.129 54.0984 206.132 53.8655C206.135 53.672 206.138 53.4754 206.138 53.2818C206.138 52.6982 206.123 52.1175 206.093 51.5338C206.045 50.5993 205.957 49.6688 205.831 48.7424C204.751 40.8232 200.866 33.5584 194.888 28.276C188.909 22.9935 181.235 20.0462 173.269 19.9728C165.302 19.8994 157.576 22.7048 151.501 27.8762C145.427 33.0476 141.41 40.2396 140.185 48.1375C140.155 48.3371 140.125 48.5398 140.098 48.7424C139.998 49.4682 139.924 50.1971 139.875 50.9289C139.86 51.1316 139.848 51.3312 139.839 51.5338C139.571 56.6619 140.492 61.7824 142.528 66.4938C144.564 71.2052 147.66 75.3793 151.573 78.6888C152.303 79.3058 153.05 79.8865 153.816 80.4308C153.819 80.4338 153.822 80.4338 153.825 80.4369C154.081 80.6184 154.337 80.7967 154.597 80.9722C155.01 81.2443 155.426 81.5105 155.845 81.7645C155.878 81.7826 155.911 81.8038 155.944 81.822C156.306 82.0397 156.671 82.2484 157.035 82.451H157.038C158.396 83.2 159.805 83.8508 161.255 84.3987C165.51 86.0047 170.047 86.719 174.588 86.4975H174.597C179.896 86.2403 185.056 84.7083 189.641 82.0307C190.307 81.6436 190.964 81.2292 191.606 80.7877C191.766 80.6788 191.929 80.5669 192.085 80.455C192.278 80.3189 192.471 80.1768 192.664 80.0346C192.667 80.0346 192.667 80.0316 192.67 80.0316C192.685 80.0196 192.7 80.0084 192.715 79.9983C192.845 79.8985 192.978 79.7987 193.104 79.702C193.138 79.6777 193.171 79.6536 193.204 79.6264C193.213 79.6202 193.221 79.6131 193.228 79.6052C193.303 79.5508 193.376 79.4902 193.451 79.4328C193.526 79.3753 193.599 79.3148 193.674 79.2544C193.687 79.2463 193.699 79.2372 193.71 79.2271C193.795 79.1576 193.879 79.091 193.963 79.0215C194.051 78.9519 194.135 78.8794 194.217 78.8098C194.301 78.7402 194.382 78.6707 194.467 78.5981C194.539 78.5376 194.615 78.4741 194.687 78.4076C194.711 78.3894 194.732 78.3682 194.756 78.3471C194.765 78.3381 194.776 78.33 194.786 78.3228C194.886 78.2382 194.982 78.1504 195.079 78.0628C195.103 78.0416 195.124 78.0204 195.148 77.9992C195.296 77.8662 195.443 77.7331 195.588 77.594C195.621 77.5637 195.657 77.5305 195.691 77.5003C195.724 77.47 195.754 77.4398 195.787 77.4095C195.829 77.3672 195.874 77.3279 195.917 77.2855C196.025 77.1827 196.131 77.0769 196.239 76.971L196.595 77.2735L196.725 77.3823H196.728L196.767 77.4186L196.908 77.5366L199.012 79.3209L199.058 79.3602L199.094 79.3874L199.332 79.59L199.808 79.9953L200.284 80.3975L200.354 80.455L202.569 82.3301L202.877 82.5901L205.014 84.3987L216.076 93.7649L216.462 94.0915L231.603 106.908L235.485 110.196L236.929 111.418C237.236 111.678 237.59 111.875 237.973 111.997C238.355 112.12 238.758 112.166 239.158 112.132C239.558 112.098 239.948 111.986 240.304 111.801C240.661 111.616 240.978 111.363 241.237 111.055C241.454 110.799 241.626 110.509 241.746 110.196C241.965 109.641 242.017 109.034 241.895 108.449C241.774 107.865 241.484 107.329 241.062 106.908ZM153.747 36.8025C156.771 33.2071 160.747 30.5433 165.216 29.119C169.685 27.6947 174.464 27.5679 179.002 28.7533C183.539 29.9387 187.65 32.3879 190.859 35.8179C194.069 39.248 196.245 43.519 197.138 48.1375C197.177 48.3402 197.213 48.5398 197.246 48.7424C197.37 49.4652 197.46 50.1971 197.514 50.9289C197.529 51.1316 197.544 51.3312 197.553 51.5338C197.581 51.9874 197.593 52.4441 197.593 52.8977C197.594 55.6495 197.14 58.3824 196.248 60.9847V60.9877C195.252 63.9054 193.721 66.6111 191.736 68.9658C191.694 69.0142 191.651 69.0656 191.606 69.114C191.208 69.5857 190.789 70.0394 190.358 70.4719C190.355 70.4749 190.352 70.481 190.349 70.484C190.202 70.6322 190.051 70.7834 189.9 70.9225C189.593 71.2219 189.279 71.5062 188.96 71.7784C188.48 72.1987 187.989 72.5929 187.486 72.9609C187.317 73.0848 187.148 73.2059 186.976 73.3268C186.807 73.4478 186.636 73.5627 186.464 73.6776C186.12 73.9075 185.771 74.1282 185.418 74.3369C185.243 74.4427 185.062 74.5456 184.884 74.6454C184.706 74.7482 184.526 74.845 184.345 74.9387C184.164 75.0355 183.983 75.1292 183.799 75.22C183.434 75.4045 183.067 75.5768 182.693 75.7371C182.506 75.8218 182.319 75.9004 182.132 75.973C182.015 76.0214 181.9 76.0698 181.783 76.1122C181.737 76.1335 181.689 76.1516 181.641 76.1666C181.578 76.1938 181.514 76.218 181.451 76.2392C181.43 76.2485 181.409 76.2566 181.388 76.2634C181.258 76.3148 181.132 76.3602 180.999 76.4055C180.809 76.4751 180.619 76.5386 180.426 76.5991C180.233 76.6626 180.043 76.7231 179.85 76.7775C179.657 76.838 179.462 76.8924 179.269 76.9438C179.073 76.9983 178.88 77.0497 178.684 77.095C178.476 77.1495 178.268 77.1979 178.057 77.2432C177.873 77.2856 177.692 77.3219 177.508 77.3552C177.336 77.3914 177.162 77.4217 176.99 77.4519C176.749 77.4943 176.508 77.5336 176.263 77.5669C176.131 77.5881 176.001 77.6062 175.869 77.6183C175.811 77.6273 175.757 77.6334 175.703 77.6394C175.534 77.6637 175.365 77.6818 175.199 77.6969C175.154 77.6999 175.112 77.706 175.07 77.709C174.886 77.7272 174.699 77.7423 174.515 77.7574C174.12 77.7846 173.728 77.8027 173.334 77.8118C173.135 77.8148 172.933 77.8179 172.734 77.8179C172.535 77.8179 172.336 77.8148 172.137 77.8088C172.137 77.8088 172.137 77.8118 172.134 77.8088C172.131 77.8118 172.131 77.8118 172.128 77.8088C172.127 77.8092 172.127 77.8095 172.126 77.8097C172.126 77.81 172.125 77.8101 172.125 77.8101C172.124 77.8101 172.124 77.81 172.123 77.8097C172.123 77.8095 172.122 77.8092 172.122 77.8088C172.112 77.8118 172.101 77.8118 172.092 77.8088C171.95 77.8088 171.808 77.8027 171.67 77.7937C171.567 77.7906 171.462 77.7876 171.356 77.7785C171.215 77.7725 171.073 77.7634 170.931 77.7513C170.886 77.7513 170.841 77.7453 170.796 77.7423C170.774 77.7418 170.753 77.7398 170.732 77.7362C170.588 77.7241 170.44 77.712 170.295 77.6969C170.223 77.6909 170.147 77.6848 170.075 77.6757C169.855 77.6515 169.635 77.6243 169.418 77.5941C169.171 77.5638 168.924 77.5275 168.679 77.4822C168.565 77.467 168.453 77.4459 168.342 77.4247C168.194 77.4005 168.046 77.3733 167.899 77.3431C167.745 77.3128 167.591 77.2826 167.437 77.2463C167.314 77.219 167.187 77.1919 167.064 77.1616C167.003 77.1495 166.943 77.1344 166.886 77.1193C166.569 77.0437 166.256 76.962 165.945 76.8713C165.75 76.8169 165.554 76.7594 165.361 76.6989C165.095 76.6172 164.833 76.5296 164.571 76.4358C164.468 76.4025 164.369 76.3662 164.266 76.3269C164.164 76.2936 164.065 76.2543 163.962 76.215C163.869 76.1817 163.775 76.1455 163.685 76.1091C163.534 76.0517 163.386 75.9912 163.239 75.9307C162.934 75.8067 162.636 75.6767 162.337 75.5376C162.168 75.4559 162 75.3773 161.834 75.2956C161.18 74.9781 160.536 74.6253 159.902 74.2371C159.745 74.1434 159.588 74.0436 159.432 73.9438C159.236 73.8228 159.046 73.6958 158.856 73.5688C158.75 73.4962 158.648 73.4266 158.545 73.3541C158.355 73.221 158.168 73.0849 157.985 72.9488C157.888 72.8792 157.792 72.8066 157.698 72.7341C157.364 72.48 157.035 72.2139 156.713 71.9417C156.559 71.8116 156.405 71.6786 156.254 71.5425C156.191 71.4881 156.128 71.4306 156.065 71.3731C155.992 71.3066 155.92 71.2431 155.851 71.1735L155.845 71.1674C155.739 71.0737 155.633 70.9739 155.531 70.8741C155.371 70.7229 155.215 70.5687 155.064 70.4114C154.907 70.2572 154.756 70.0969 154.609 69.9396C154.458 69.7824 154.313 69.6221 154.172 69.4587C154.027 69.2985 153.885 69.1352 153.747 68.9689C153.611 68.8116 153.478 68.6483 153.352 68.488C153.044 68.1069 152.751 67.7188 152.471 67.3236C152.342 67.1422 152.218 66.9607 152.098 66.7762C151.968 66.5887 151.844 66.3982 151.727 66.2076C151.603 66.0171 151.486 65.8236 151.371 65.627C151.368 65.6203 151.364 65.6141 151.359 65.6088C151.133 65.2248 150.916 64.8377 150.714 64.4445C150.506 64.0453 150.31 63.6421 150.126 63.2348C150.033 63.0321 149.943 62.8265 149.858 62.6209C149.683 62.2065 149.52 61.7922 149.37 61.3718C149.294 61.1692 149.225 60.9665 149.156 60.7609C149.154 60.7473 149.149 60.7341 149.144 60.7216C149.005 60.3042 148.878 59.8839 148.767 59.4605C148.764 59.4544 148.764 59.4484 148.761 59.4424C148.704 59.2337 148.649 59.025 148.601 58.8133C148.553 58.6288 148.511 58.4443 148.472 58.2568C148.426 58.0481 148.381 57.8395 148.342 57.6278C148.321 57.5189 148.3 57.41 148.282 57.3011C148.264 57.2104 148.248 57.1167 148.233 57.026C148.218 56.9352 148.203 56.8414 148.188 56.7477C148.158 56.5632 148.131 56.3788 148.107 56.1943C148.077 55.9765 148.053 55.7588 148.028 55.538C148.001 55.2749 147.977 55.0117 147.956 54.7456C147.941 54.5672 147.932 54.3857 147.923 54.2043C147.914 54.038 147.905 53.8716 147.902 53.7053C147.899 53.6965 147.899 53.6869 147.902 53.6781C147.901 53.6777 147.901 53.6772 147.901 53.6767C147.901 53.6762 147.901 53.6756 147.901 53.675C147.901 53.6745 147.901 53.6739 147.901 53.6734C147.901 53.6729 147.901 53.6724 147.902 53.672C147.899 53.669 147.899 53.669 147.902 53.666C147.901 53.6656 147.901 53.6651 147.901 53.6646C147.901 53.6641 147.901 53.6635 147.901 53.6629C147.901 53.6624 147.901 53.6618 147.901 53.6613C147.901 53.6608 147.901 53.6603 147.902 53.6599C147.899 53.5934 147.896 53.5269 147.896 53.4603C147.89 53.2638 147.887 53.0672 147.887 52.8706C147.887 52.6921 147.89 52.5167 147.893 52.3383C147.899 52.0903 147.908 51.8423 147.92 51.5943C147.92 51.5399 147.926 51.4885 147.929 51.434C147.932 51.3796 147.935 51.3281 147.938 51.2737C147.944 51.1588 147.953 51.0439 147.965 50.9289C147.965 50.9077 147.966 50.8865 147.968 50.8654C147.977 50.7354 147.989 50.6054 148.001 50.4754C148.025 50.2153 148.056 49.9522 148.089 49.6921C148.107 49.562 148.122 49.432 148.143 49.3019C148.155 49.2112 148.17 49.1174 148.185 49.0237C148.197 48.9299 148.212 48.8362 148.23 48.7424C148.251 48.6184 148.273 48.4914 148.297 48.3643C148.309 48.2887 148.324 48.2131 148.339 48.1375C148.396 47.8351 148.459 47.5327 148.529 47.2303C148.598 46.9248 148.677 46.6224 148.761 46.32C148.842 46.0145 148.933 45.7091 149.029 45.4036C149.074 45.2494 149.123 45.0982 149.177 44.947C149.276 44.6415 149.382 44.3391 149.499 44.0397C149.554 43.8915 149.611 43.7403 149.674 43.5921C149.795 43.2927 149.921 42.9933 150.051 42.6999C150.117 42.5517 150.184 42.4035 150.256 42.2554C150.392 41.962 150.533 41.6686 150.687 41.3813C150.835 41.088 150.994 40.8007 151.157 40.5164C151.32 40.2321 151.489 39.9478 151.667 39.6666C151.748 39.5274 151.838 39.3853 151.932 39.2492C152.113 38.971 152.303 38.6927 152.496 38.4206C152.885 37.8701 153.304 37.3287 153.747 36.8025ZM147.962 50.9289C147.953 51.0439 147.944 51.1588 147.938 51.2737C147.944 51.1588 147.953 51.0439 147.965 50.9289C147.965 50.9077 147.966 50.8865 147.968 50.8654C147.965 50.8866 147.965 50.9078 147.962 50.9289ZM148.336 48.1375C148.324 48.2131 148.309 48.2887 148.297 48.3643C148.309 48.2887 148.324 48.2131 148.339 48.1375H148.336ZM155.845 71.1674V71.1704C155.845 71.1735 155.848 71.1735 155.851 71.1735L155.845 71.1674Z" fill="#3F3D56"/>
<path opacity="0.3" d="M156.713 71.9414C151.945 67.9046 148.865 62.2166 148.083 56.0066C147.302 49.7966 148.877 43.519 152.495 38.4202C152.02 38.9003 151.561 39.4032 151.117 39.9287C149.013 42.4314 147.42 45.3255 146.43 48.4457C145.44 51.566 145.072 54.8514 145.348 58.1142C145.623 61.3771 146.536 64.5536 148.035 67.4623C149.535 70.371 151.59 72.955 154.084 75.0667C159.122 79.3316 165.642 81.4139 172.21 80.8556C178.778 80.2973 184.856 77.1442 189.106 72.0899C189.549 71.5636 189.966 71.0247 190.357 70.4731C185.956 74.9095 180.053 77.5233 173.82 77.7953C167.588 78.0673 161.481 75.9777 156.713 71.9414Z" fill="black"/>
</g>
<defs>
<clipPath id="clip0_2565_1649">
<rect width="274" height="137" fill="white"/>
</clipPath>
</defs>
</svg>
