<svg width="242" height="205" viewBox="0 0 242 205" fill="none" xmlns="http://www.w3.org/2000/svg">
  <g clip-path="url(#clip0_2565_1916)">
    <path
      d="M185.84 190.176H76.2541C75.5747 190.175 74.9234 189.904 74.443 189.423C73.9627 188.942 73.6924 188.289 73.6917 187.608V112.605C73.6924 111.925 73.9627 111.272 74.443 110.79C74.9234 110.309 75.5747 110.038 76.2541 110.037H185.84C186.519 110.038 187.171 110.309 187.651 110.79C188.131 111.272 188.402 111.925 188.402 112.605V187.608C188.402 188.289 188.131 188.942 187.651 189.423C187.171 189.904 186.519 190.175 185.84 190.176Z"
      fill="white" />
    <path
      d="M185.84 190.176H76.2541C75.5747 190.175 74.9234 189.904 74.443 189.423C73.9627 188.942 73.6924 188.289 73.6917 187.608V112.605C73.6924 111.925 73.9627 111.272 74.443 110.79C74.9234 110.309 75.5747 110.038 76.2541 110.037H185.84C186.519 110.038 187.171 110.309 187.651 110.79C188.131 111.272 188.402 111.925 188.402 112.605V187.608C188.402 188.289 188.131 188.942 187.651 189.423C187.171 189.904 186.519 190.175 185.84 190.176ZM76.2541 110.608C75.7257 110.608 75.2191 110.819 74.8455 111.194C74.4718 111.568 74.2617 112.076 74.2611 112.605V187.608C74.2617 188.137 74.4718 188.645 74.8455 189.02C75.2191 189.394 75.7257 189.605 76.2541 189.605H185.84C186.368 189.605 186.875 189.394 187.248 189.02C187.622 188.645 187.832 188.137 187.833 187.608V112.605C187.832 112.076 187.622 111.568 187.248 111.194C186.875 110.819 186.368 110.608 185.84 110.608H76.2541Z"
      fill="black" />
    <path
      d="M143.732 189.725H118.362V147.627C118.363 146.628 118.759 145.671 119.464 144.965C120.168 144.259 121.123 143.862 122.119 143.861H139.975C140.971 143.862 141.926 144.259 142.631 144.965C143.335 145.671 143.731 146.628 143.732 147.627V189.725Z"
      fill="#EBEBEB" />
    <path
      d="M179.863 94.0496H165.375V69.7803C165.376 69.0993 165.646 68.4465 166.126 67.965C166.607 67.4835 167.258 67.2127 167.937 67.2119H177.301C177.98 67.2127 178.632 67.4835 179.112 67.965C179.592 68.4465 179.863 69.0993 179.863 69.7803V94.0496Z"
      fill="white" />
    <path
      d="M179.863 94.0496H165.375V69.7803C165.376 69.0993 165.646 68.4465 166.126 67.965C166.607 67.4835 167.258 67.2127 167.937 67.2119H177.301C177.98 67.2127 178.632 67.4835 179.112 67.965C179.592 68.4465 179.863 69.0993 179.863 69.7803V94.0496ZM165.944 93.4788H179.294V69.7803C179.293 69.2507 179.083 68.7429 178.71 68.3684C178.336 67.9939 177.829 67.7833 177.301 67.7827H167.937C167.409 67.7833 166.902 67.9939 166.529 68.3684C166.155 68.7429 165.945 69.2507 165.944 69.7803V93.4788Z"
      fill="#3F3D56" />
    <path
      d="M98.176 104.269C113.585 104.269 126.076 91.7492 126.076 76.305C126.076 60.8608 113.585 48.3408 98.176 48.3408C82.7673 48.3408 70.2761 60.8608 70.2761 76.305C70.2761 91.7492 82.7673 104.269 98.176 104.269Z"
      fill="#F2F2F2" />
    <path
      d="M173.053 62.9573C170.54 62.8781 168.304 60.5812 168.286 58.0615C168.268 55.5418 170.472 53.2131 172.983 53.098C178.575 52.8416 183.153 46.827 181.922 41.3538C180.692 35.8806 173.982 32.4154 168.821 34.5877C164.862 36.254 160.862 31.0037 161.865 26.819C162.869 22.6343 166.666 19.8242 170.179 17.3498C173.692 14.8753 177.45 11.9699 178.298 7.75084C179.146 3.53176 174.805 -1.52221 170.98 0.433504"
      fill="#EBEBEB" />
    <path
      d="M107.646 156.089H86.2152C85.3604 156.088 84.5408 155.747 83.9364 155.142C83.3319 154.536 82.9919 153.714 82.991 152.857V135.149C82.9919 134.292 83.332 133.471 83.9364 132.865C84.5409 132.259 85.3604 131.918 86.2152 131.917H107.646C108.501 131.918 109.32 132.259 109.925 132.865C110.529 133.471 110.869 134.292 110.87 135.149V152.857C110.869 153.714 110.529 154.536 109.925 155.142C109.32 155.747 108.501 156.088 107.646 156.089Z"
      fill="#EBEBEB" />
    <path
      d="M176.375 156.089H154.944C154.089 156.088 153.27 155.747 152.665 155.142C152.061 154.536 151.721 153.714 151.72 152.857V135.149C151.721 134.292 152.061 133.471 152.665 132.865C153.27 132.259 154.089 131.918 154.944 131.917H176.375C177.23 131.918 178.049 132.259 178.654 132.865C179.258 133.471 179.598 134.292 179.599 135.149V152.857C179.598 153.714 179.258 154.536 178.654 155.142C178.049 155.747 177.23 156.088 176.375 156.089Z"
      fill="#EBEBEB" />
    <path
      d="M65.51 111.58V100.04C65.51 99.1536 65.7438 98.2829 66.1877 97.5162C66.6315 96.7495 67.2697 96.114 68.0376 95.6741L132.007 59.0283C132.801 58.5734 133.704 58.3447 134.618 58.367C135.532 58.3892 136.423 58.6615 137.194 59.1545L194.265 95.6394C194.976 96.0939 195.561 96.7205 195.966 97.4616C196.372 98.2026 196.584 99.0341 196.584 99.8792V111.58C196.584 112.913 196.056 114.193 195.115 115.136C194.174 116.079 192.898 116.608 191.567 116.608H70.5272C69.1966 116.608 67.9204 116.079 66.9795 115.136C66.0386 114.193 65.51 112.913 65.51 111.58Z"
      fill="#5392FC" />
    <path opacity="0.2"
      d="M191.567 111.471H70.5272C69.1965 111.471 67.9204 110.941 66.9795 109.998C66.0386 109.055 65.51 107.776 65.51 106.442V111.008C65.51 112.342 66.0386 113.621 66.9795 114.564C67.9204 115.507 69.1965 116.037 70.5272 116.037H191.567C192.898 116.037 194.174 115.507 195.115 114.564C196.056 113.621 196.584 112.342 196.584 111.008V106.442C196.584 107.776 196.056 109.055 195.115 109.998C194.174 110.941 192.898 111.471 191.567 111.471Z"
      fill="black" />
    <path
      d="M201.395 150.959C201.395 142.11 208.552 121.111 217.381 121.111C226.21 121.111 233.367 142.11 233.367 150.959C233.367 155.209 231.683 159.285 228.685 162.289C225.687 165.294 221.62 166.982 217.381 166.982C213.141 166.982 209.075 165.294 206.077 162.289C203.079 159.285 201.395 155.209 201.395 150.959Z"
      fill="#E6E4E0" />
    <path
      d="M217.381 189.836C217.305 189.836 217.233 189.805 217.179 189.752C217.126 189.698 217.096 189.626 217.096 189.55V132.016C217.096 131.94 217.126 131.868 217.179 131.814C217.233 131.761 217.305 131.73 217.381 131.73C217.456 131.73 217.529 131.761 217.582 131.814C217.635 131.868 217.665 131.94 217.665 132.016V189.55C217.665 189.626 217.635 189.698 217.582 189.752C217.529 189.805 217.456 189.836 217.381 189.836Z"
      fill="black" />
    <path
      d="M217.381 157.53C217.325 157.53 217.27 157.513 217.224 157.483C217.177 157.452 217.141 157.408 217.119 157.357C217.097 157.305 217.091 157.249 217.1 157.194C217.11 157.139 217.136 157.088 217.175 157.048L225.301 148.5C225.327 148.473 225.358 148.451 225.392 148.436C225.426 148.421 225.463 148.413 225.5 148.412C225.538 148.411 225.575 148.417 225.61 148.431C225.645 148.444 225.677 148.465 225.704 148.49C225.731 148.516 225.752 148.547 225.768 148.581C225.783 148.616 225.791 148.653 225.792 148.69C225.793 148.728 225.786 148.765 225.773 148.8C225.759 148.835 225.739 148.867 225.713 148.894L217.587 157.441C217.56 157.469 217.528 157.492 217.493 157.507C217.457 157.522 217.419 157.53 217.381 157.53Z"
      fill="black" />
    <path
      d="M217.381 143.119C217.31 143.119 217.241 143.092 217.189 143.044L210.166 136.609C210.138 136.583 210.116 136.553 210.1 136.519C210.084 136.485 210.075 136.448 210.073 136.411C210.071 136.373 210.077 136.336 210.09 136.3C210.103 136.265 210.122 136.233 210.147 136.205C210.173 136.177 210.203 136.155 210.237 136.139C210.271 136.123 210.308 136.114 210.345 136.112C210.383 136.111 210.42 136.117 210.455 136.129C210.49 136.142 210.523 136.162 210.55 136.187L217.573 142.623C217.615 142.662 217.645 142.713 217.658 142.769C217.671 142.825 217.667 142.883 217.646 142.937C217.625 142.991 217.589 143.037 217.542 143.069C217.494 143.102 217.438 143.119 217.381 143.119Z"
      fill="black" />
    <path
      d="M6.27173 133.352C6.27173 120.335 16.8003 89.4446 29.788 89.4446C42.7757 89.4446 53.3043 120.335 53.3043 133.352C53.3043 139.604 50.8267 145.599 46.4166 150.019C42.0064 154.44 36.0249 156.923 29.788 156.923C23.5511 156.923 17.5697 154.44 13.1595 150.019C8.74933 145.599 6.27173 139.604 6.27173 133.352Z"
      fill="#EE7D12" />
    <path
      d="M29.7881 190.406C29.7126 190.406 29.6402 190.376 29.5868 190.323C29.5334 190.269 29.5034 190.197 29.5034 190.121V105.486C29.5034 105.41 29.5334 105.337 29.5868 105.284C29.6402 105.23 29.7126 105.2 29.7881 105.2C29.8636 105.2 29.9361 105.23 29.9895 105.284C30.0429 105.337 30.0729 105.41 30.0729 105.486V190.121C30.0728 190.197 30.0429 190.269 29.9895 190.323C29.9361 190.376 29.8636 190.406 29.7881 190.406Z"
      fill="black" />
    <path
      d="M29.7881 142.883C29.7324 142.883 29.6779 142.867 29.6314 142.836C29.5848 142.805 29.5484 142.761 29.5264 142.71C29.5045 142.659 29.498 142.602 29.5079 142.547C29.5178 142.492 29.5436 142.441 29.5821 142.401L41.5364 129.827C41.5885 129.772 41.6601 129.741 41.7356 129.739C41.8111 129.737 41.8843 129.765 41.9389 129.818C41.9936 129.87 42.0253 129.942 42.0272 130.017C42.029 130.093 42.0007 130.166 41.9486 130.221L29.9943 142.795C29.9677 142.823 29.9357 142.845 29.9003 142.86C29.8648 142.875 29.8267 142.883 29.7881 142.883Z"
      fill="black" />
    <path
      d="M29.7879 121.685C29.7169 121.685 29.6483 121.658 29.5959 121.61L19.265 112.142C19.2092 112.091 19.176 112.02 19.1726 111.945C19.1693 111.869 19.196 111.795 19.247 111.739C19.2979 111.683 19.3689 111.65 19.4444 111.647C19.5198 111.643 19.5935 111.67 19.6492 111.721L29.9801 121.189C30.0225 121.227 30.0522 121.278 30.0652 121.334C30.0783 121.39 30.0742 121.449 30.0534 121.503C30.0326 121.556 29.9962 121.602 29.9488 121.635C29.9014 121.667 29.8453 121.685 29.7879 121.685Z"
      fill="black" />
    <path
      d="M206.214 189.807C206.241 189.828 206.269 189.847 206.296 189.867H229.447C229.9 188.025 230.06 186.181 229.383 184.58C228.417 182.298 225.56 180.873 223.289 181.853C222.751 182.092 222.282 182.463 221.927 182.933C221.039 181.341 219.446 180.14 217.609 180.141C215.306 180.143 213.391 182.03 212.766 184.211C211.76 182.508 209.773 181.319 207.831 181.831C204.582 182.686 203.556 187.748 206.214 189.807Z"
      fill="#EBEBEB" />
    <path
      d="M7.32895 190.317C7.3833 190.359 7.44072 190.397 7.49577 190.438H54.2299C55.1457 186.72 55.469 182.997 54.1012 179.764C52.1523 175.157 46.3845 172.281 41.799 174.26C40.7126 174.741 39.7662 175.492 39.0489 176.441C37.2569 173.226 34.0424 170.802 30.3321 170.804C25.6836 170.808 21.8187 174.618 20.5573 179.019C18.5263 175.583 14.5146 173.181 10.5933 174.214C4.03496 175.942 1.96339 186.161 7.32895 190.317Z"
      fill="#EBEBEB" />
    <path d="M241.999 189.607L0 190.066L0.00107743 190.636L242 190.177L241.999 189.607Z"
      fill="black" />
    <path
      d="M81.6607 177.992C81.7185 177.767 81.7262 177.531 81.6833 177.302C81.6405 177.073 81.548 176.857 81.4126 176.668C81.2771 176.478 81.1019 176.321 80.8993 176.207C80.6967 176.093 80.4716 176.025 80.2399 176.008L71.1982 164.677L68.9609 166.767L78.5125 177.591C78.5092 177.983 78.6495 178.362 78.9068 178.658C79.1641 178.953 79.5205 179.143 79.9086 179.193C80.2966 179.243 80.6893 179.148 81.0123 178.926C81.3352 178.705 81.5659 178.373 81.6607 177.992Z"
      fill="#FFB8B8" />
    <path
      d="M72.9329 166.477L70.0754 168.671C69.9941 168.733 69.9003 168.777 69.8004 168.8C69.7006 168.823 69.597 168.824 69.4968 168.803C69.3965 168.782 69.3019 168.74 69.2195 168.679C69.137 168.618 69.0686 168.54 69.0189 168.45L67.2783 165.305C66.9622 164.886 66.8246 164.359 66.8958 163.839C66.9669 163.319 67.241 162.848 67.6579 162.53C68.0747 162.212 68.6004 162.072 69.1196 162.142C69.6389 162.212 70.1093 162.485 70.4278 162.902L72.9958 165.398C73.0693 165.469 73.1265 165.555 73.1637 165.651C73.2008 165.747 73.2169 165.849 73.211 165.952C73.205 166.054 73.1771 166.154 73.1291 166.245C73.0811 166.336 73.0142 166.415 72.9329 166.477Z"
      fill="#EE7D12" />
    <path
      d="M68.1339 159.637C70.1408 159.637 71.7676 158.007 71.7676 155.995C71.7676 153.984 70.1408 152.353 68.1339 152.353C66.1271 152.353 64.5002 153.984 64.5002 155.995C64.5002 158.007 66.1271 159.637 68.1339 159.637Z"
      fill="#FFB8B8" />
    <path d="M75.8905 203.238H77.7045L77.5316 199.835H74.8547L75.8905 203.238Z" fill="#FFB8B8" />
    <path
      d="M75.4277 202.644L78.9997 202.644C79.2986 202.644 79.5948 202.703 79.871 202.818C80.1471 202.932 80.3981 203.1 80.6095 203.312C80.8208 203.524 80.9885 203.776 81.1029 204.052C81.2173 204.329 81.2762 204.626 81.2762 204.926V205L75.4278 205L75.4277 202.644Z"
      fill="black" />
    <path d="M56.5522 200.664L58.0954 201.619L59.7325 198.634L57.8654 197.463L56.5522 200.664Z"
      fill="#FFB8B8" />
    <path
      d="M56.4698 199.915L59.5087 201.797C59.763 201.954 59.984 202.16 60.1589 202.403C60.3337 202.646 60.4591 202.921 60.5278 203.213C60.5966 203.505 60.6073 203.807 60.5595 204.103C60.5117 204.398 60.4062 204.682 60.2491 204.937L60.2102 205L55.2346 201.919L56.4698 199.915Z"
      fill="black" />
    <path
      d="M75.7593 202.24C75.6244 202.24 75.4928 202.199 75.3819 202.122C75.2709 202.045 75.186 201.936 75.1382 201.81L68.5774 186.088C68.5633 186.049 68.5389 186.016 68.5069 185.99C68.4749 185.965 68.4365 185.949 68.3959 185.944C68.3554 185.939 68.3143 185.945 68.2771 185.962C68.24 185.979 68.2082 186.006 68.1853 186.04L59.1721 200.271C59.0839 200.404 58.9512 200.5 58.7981 200.543C58.645 200.586 58.4817 200.572 58.3379 200.504L57.1046 199.927C56.9466 199.852 56.8241 199.719 56.7632 199.555C56.7023 199.391 56.7078 199.209 56.7787 199.049L64.163 182.551C64.0018 182.158 62.429 178.121 64.8454 176.126L64.8623 176.116L71.4147 173.186L71.5799 178.224L78.1109 200.936C78.1355 201.022 78.1427 201.111 78.1323 201.2C78.1219 201.288 78.0939 201.373 78.0501 201.451C78.0063 201.528 77.9475 201.596 77.8772 201.65C77.8068 201.704 77.7264 201.744 77.6405 201.767L75.9299 202.218C75.8742 202.233 75.8169 202.24 75.7593 202.24Z"
      fill="black" />
    <path
      d="M71.514 165.817C71.2645 164.813 70.9108 163.802 70.4369 163.335C70.2626 163.164 70.0988 162.983 69.9465 162.793C69.6277 162.391 69.2266 162.061 68.7702 161.827C68.9372 161.734 69.0351 161.623 69.0351 161.503C69.0351 161.176 68.3065 160.91 67.4077 160.91C66.5089 160.91 65.7803 161.176 65.7803 161.503C65.7825 161.541 65.7922 161.579 65.8088 161.613C65.8254 161.647 65.8486 161.678 65.877 161.703C65.2901 161.943 64.7801 162.34 64.4026 162.85C64.0251 163.36 63.7945 163.964 63.736 164.597C63.5258 166.853 63.4644 169.737 64.201 171.562C64.8189 173.07 64.868 174.753 64.3393 176.295C64.3034 176.402 64.299 176.518 64.3267 176.627C64.3543 176.737 64.4127 176.837 64.495 176.914C64.5774 176.992 64.6802 177.044 64.7912 177.065C64.9023 177.086 65.017 177.074 65.1217 177.032L71.6234 174.406C71.7329 174.361 71.8266 174.285 71.8927 174.187C71.9587 174.089 71.994 173.974 71.994 173.855V169.867C71.9992 168.502 71.838 167.142 71.514 165.817Z"
      fill="#EE7D12" />
    <path
      d="M59.074 182.244C59.3003 182.191 59.5123 182.09 59.6952 181.946C59.878 181.802 60.0272 181.62 60.1322 181.412C60.2372 181.204 60.2955 180.976 60.3029 180.743C60.3104 180.511 60.2668 180.279 60.1753 180.065L65.2624 166.619L62.6827 165.951L57.9774 179.259C57.6288 179.437 57.3574 179.737 57.2147 180.102C57.0719 180.467 57.0677 180.872 57.2029 181.24C57.3381 181.608 57.6032 181.913 57.948 182.098C58.2929 182.283 58.6935 182.335 59.074 182.244Z"
      fill="#FFB8B8" />
    <path
      d="M65.2413 169.17L61.9815 167.641C61.8888 167.598 61.8065 167.535 61.7403 167.456C61.674 167.378 61.6254 167.286 61.5976 167.188C61.5699 167.089 61.5638 166.985 61.5796 166.884C61.5955 166.782 61.6329 166.685 61.6895 166.6L63.6705 163.601C63.8958 163.127 64.2991 162.763 64.7921 162.586C65.2852 162.41 65.8279 162.437 66.3014 162.661C66.7749 162.884 67.1406 163.287 67.3184 163.781C67.4963 164.274 67.4719 164.818 67.2505 165.294L66.2261 168.728C66.1967 168.827 66.1466 168.917 66.079 168.995C66.0115 169.072 65.9281 169.133 65.8347 169.175C65.7412 169.217 65.6398 169.239 65.5374 169.238C65.435 169.237 65.334 169.214 65.2413 169.17Z"
      fill="#EE7D12" />
    <path
      d="M71.4718 155.098C71.6357 155.118 71.8017 155.088 71.9485 155.012C72.2165 154.836 72.1901 154.437 72.0994 154.129C71.8734 153.391 71.4655 152.721 70.9134 152.183C70.3613 151.644 69.6828 151.254 68.9404 151.048C68.4231 150.91 67.7686 150.915 67.4726 151.362C66.7289 150.866 65.8323 150.653 64.9454 150.762C64.0585 150.871 63.2399 151.295 62.6383 151.957C62.0503 152.649 61.6583 153.486 61.5033 154.381C61.1928 155.906 59.8631 159.051 60.5996 160.421C61.0898 161.332 63.3455 160.622 64.2997 161.019C64.775 161.226 65.2939 161.313 65.8104 161.271C66.327 161.229 66.8253 161.06 67.2612 160.78C67.6879 160.484 68.0085 160.06 68.1759 159.568C68.3432 159.076 68.3484 158.544 68.1907 158.049C68.0236 157.685 67.831 157.334 67.6143 156.997C67.3967 156.657 67.308 156.25 67.3641 155.849C67.4976 155.24 70.3657 155.076 71.4718 155.098Z"
      fill="#2F2E41" />
  </g>
  <defs>
    <clipPath id="clip0_2565_1916">
      <rect width="242" height="205" fill="white" />
    </clipPath>
  </defs>
</svg>