<svg width="243" height="233" viewBox="0 0 243 233" fill="none" xmlns="http://www.w3.org/2000/svg">
<g clip-path="url(#clip0_2565_2077)">
<path d="M221.035 222.907C220.777 222.918 220.522 222.851 220.304 222.713C220.086 222.575 219.915 222.374 219.815 222.136C219.716 221.898 219.692 221.635 219.747 221.383C219.802 221.131 219.933 220.902 220.123 220.727L220.209 220.385C220.197 220.357 220.186 220.33 220.175 220.303C219.915 219.69 219.479 219.167 218.923 218.801C218.366 218.434 217.714 218.24 217.047 218.243C216.38 218.245 215.729 218.444 215.175 218.815C214.622 219.185 214.19 219.711 213.935 220.326C212.914 222.779 211.615 225.237 211.295 227.831C211.154 228.978 211.213 230.14 211.47 231.266C209.073 226.047 207.829 220.375 207.821 214.633C207.82 213.193 207.9 211.753 208.061 210.321C208.193 209.147 208.377 207.982 208.613 206.825C209.898 200.547 212.656 194.662 216.662 189.655C218.6 188.599 220.168 186.976 221.154 185.003C221.511 184.294 221.764 183.537 221.903 182.756C221.685 182.784 221.079 179.46 221.244 179.256C220.939 178.794 220.393 178.565 220.061 178.114C218.405 175.874 216.124 176.265 214.934 179.31C212.39 180.591 212.366 182.716 213.926 184.76C214.919 186.06 215.056 187.819 215.927 189.211C215.837 189.326 215.744 189.437 215.654 189.551C214.016 191.654 212.588 193.912 211.391 196.293C211.682 193.626 211.334 190.928 210.377 188.42C209.406 186.084 207.588 184.116 205.986 182.096C204.062 179.67 200.117 180.729 199.778 183.804C199.774 183.834 199.771 183.864 199.768 183.894C200.006 184.028 200.239 184.17 200.467 184.32C200.753 184.511 200.975 184.784 201.103 185.103C201.231 185.422 201.26 185.772 201.186 186.107C201.111 186.443 200.937 186.748 200.686 186.983C200.435 187.218 200.118 187.371 199.778 187.424L199.743 187.429C199.828 188.285 199.978 189.133 200.191 189.966C198.136 197.898 202.573 200.787 208.907 200.917C209.047 200.988 209.183 201.06 209.323 201.128C208.12 204.53 207.366 208.074 207.078 211.67C206.916 213.792 206.925 215.923 207.107 218.044L207.096 217.968C206.637 215.611 205.377 213.484 203.529 211.946C200.784 209.695 196.905 208.866 193.944 207.057C193.629 206.855 193.263 206.747 192.889 206.746C192.515 206.746 192.148 206.851 191.833 207.052C191.517 207.252 191.265 207.538 191.107 207.876C190.949 208.214 190.891 208.591 190.94 208.961C190.944 208.987 190.948 209.014 190.952 209.04C191.393 209.219 191.823 209.426 192.239 209.659C192.477 209.793 192.71 209.935 192.938 210.086C193.224 210.277 193.446 210.549 193.574 210.868C193.702 211.187 193.731 211.537 193.657 211.873C193.582 212.208 193.408 212.513 193.157 212.748C192.906 212.983 192.589 213.137 192.249 213.189L192.214 213.195C192.189 213.198 192.167 213.202 192.142 213.205C192.897 215.003 193.955 216.658 195.272 218.097C196.557 225.021 202.075 225.678 207.978 223.662H207.982C208.63 226.471 209.568 229.205 210.782 231.821H220.785C220.821 231.71 220.853 231.596 220.885 231.485C219.959 231.543 219.03 231.487 218.117 231.32C218.86 230.411 219.602 229.495 220.344 228.586C220.36 228.569 220.376 228.551 220.39 228.532C220.767 228.067 221.147 227.605 221.523 227.14L221.524 227.14C221.544 225.714 221.379 224.291 221.035 222.907Z" fill="#EBEBEB"/>
<path d="M204.368 134.125C207.019 124.517 211.964 116.335 219.949 110.04C220.265 109.552 220.761 109.21 221.329 109.088C221.898 108.966 222.491 109.074 222.98 109.388L241.204 121.133C241.692 121.448 242.035 121.944 242.157 122.511C242.28 123.078 242.172 123.671 241.857 124.159L226.276 148.244C225.961 148.731 225.464 149.073 224.896 149.195C224.327 149.318 223.734 149.21 223.245 148.895L205.021 137.151C204.533 136.836 204.19 136.34 204.068 135.773C203.945 135.205 204.053 134.613 204.368 134.125Z" fill="#EBEBEB"/>
<path d="M210.471 127.751C211.155 122.675 215.362 117.485 220.488 112.267C220.784 111.81 221.249 111.49 221.781 111.376C222.313 111.261 222.869 111.362 223.327 111.656L238.989 121.75C239.446 122.045 239.767 122.51 239.882 123.041C239.996 123.572 239.895 124.127 239.6 124.584L225.736 146.017C225.44 146.473 224.975 146.793 224.443 146.908C223.91 147.022 223.354 146.921 222.897 146.627L213.194 140.374C211.158 139.059 209.728 136.991 209.218 134.624C208.707 132.258 209.158 129.786 210.471 127.751Z" fill="white"/>
<path d="M211.869 148.449C209.557 138.754 209.942 129.206 213.902 119.851C213.944 119.272 214.214 118.734 214.653 118.353C215.092 117.973 215.665 117.782 216.245 117.823L237.883 119.355C238.463 119.397 239.002 119.667 239.383 120.105C239.764 120.543 239.955 121.114 239.915 121.693L237.882 150.291C237.84 150.87 237.57 151.408 237.131 151.789C236.692 152.169 236.119 152.36 235.539 152.319L213.901 150.787C213.321 150.745 212.782 150.475 212.401 150.037C212.02 149.599 211.829 149.027 211.869 148.449Z" fill="#EBEBEB"/>
<path d="M214.143 139.928C212.292 135.151 213.476 128.581 215.45 121.543C215.489 121.001 215.742 120.497 216.154 120.141C216.565 119.785 217.101 119.606 217.644 119.644L236.24 120.961C236.783 121 237.288 121.252 237.645 121.663C238.002 122.073 238.181 122.608 238.143 123.15L236.334 148.598C236.295 149.14 236.042 149.645 235.631 150.001C235.219 150.357 234.683 150.536 234.14 150.498L222.62 149.682C220.201 149.508 217.95 148.383 216.361 146.555C214.772 144.726 213.974 142.343 214.143 139.928Z" fill="white"/>
<path d="M213.735 88.6024L204.465 54.3558C204.068 52.906 203.115 51.6702 201.814 50.915C200.512 50.1598 198.965 49.9458 197.506 50.3191C196.751 50.5123 196.044 50.8568 195.427 51.3316C194.811 51.8065 194.297 52.4018 193.918 53.0811C193.54 53.7605 193.303 54.5098 193.224 55.2833C193.145 56.0567 193.224 56.8382 193.458 57.5801L204.179 92.8592L209.789 114.57C208.972 115.193 208.367 116.052 208.056 117.029C207.745 118.007 207.743 119.057 208.05 120.036C208.358 121.015 208.96 121.876 209.774 122.502C210.589 123.127 211.577 123.488 212.604 123.533C213.631 123.579 214.647 123.308 215.514 122.757C216.382 122.207 217.058 121.403 217.452 120.455C217.845 119.507 217.937 118.461 217.714 117.46C217.492 116.458 216.966 115.549 216.207 114.856L213.735 88.6024Z" fill="#FFB6B6"/>
<path d="M146.881 94.5268L156.388 60.3449C156.786 58.8955 156.598 57.3479 155.863 56.036C155.129 54.7241 153.907 53.7531 152.461 53.3325C151.713 53.1149 150.929 53.0517 150.156 53.1466C149.382 53.2415 148.637 53.4925 147.964 53.8844C147.291 54.2764 146.705 54.8009 146.242 55.4262C145.779 56.0514 145.449 56.7642 145.271 57.5212L136.486 93.33L130.23 114.864C129.209 114.984 128.25 115.415 127.483 116.099C126.716 116.782 126.179 117.684 125.943 118.683C125.708 119.682 125.787 120.729 126.168 121.681C126.55 122.634 127.216 123.446 128.076 124.008C128.937 124.57 129.949 124.853 130.977 124.821C132.004 124.788 132.996 124.44 133.819 123.825C134.642 123.209 135.254 122.356 135.574 121.381C135.894 120.406 135.905 119.356 135.607 118.375L146.881 94.5268Z" fill="#FFB6B6"/>
<path d="M201.282 225.829L195.224 225.829L192.343 202.507L201.283 202.508L201.282 225.829Z" fill="#FFB6B6"/>
<path d="M201.495 232.137L182.867 232.136V231.901C182.867 229.982 183.631 228.141 184.991 226.784C186.351 225.427 188.195 224.664 190.118 224.664L193.521 222.088L199.869 224.665L201.496 224.665L201.495 232.137Z" fill="black"/>
<path d="M158.653 225.89L152.689 224.828L153.954 201.364L162.756 202.931L158.653 225.89Z" fill="#FFB6B6"/>
<path d="M157.754 232.137L139.415 228.873L139.456 228.641C139.794 226.752 140.87 225.074 142.447 223.976C144.024 222.878 145.974 222.45 147.867 222.787L151.67 220.847L157.467 224.496L159.068 224.781L157.754 232.137Z" fill="black"/>
<path d="M159.243 118.6C159.243 118.6 153.598 126.581 153.828 129.26C154.058 131.938 156.052 129.802 154.058 131.938C152.064 134.075 150.902 132.642 151.882 135.281C152.862 137.921 153.26 136.212 152.862 137.921C152.463 139.63 153.26 205.013 153.26 205.013H163.642C163.642 205.013 169.497 167.101 168.755 165.331C168.014 163.561 168.031 164.332 168.82 162.451C169.609 160.57 170.352 158.332 170.352 158.332L178.558 135.281L184.888 167.737L192.338 206.303H202.287C202.287 206.303 203.991 149.59 204.744 148.884C205.497 148.177 204.596 146.589 203.651 145.674C202.706 144.758 202.894 143.829 203.199 141.943C203.503 140.058 204.788 139.006 204.744 137.823C204.7 136.639 207.491 117.836 203.105 114.845C198.718 111.853 159.243 118.6 159.243 118.6Z" fill="black"/>
<path d="M193.956 39.0981L182.343 36.0945L176.922 28.6321L164.049 30.2117L161.308 40.3905L152.144 45.7004C168.572 45.7984 159.725 93.3051 162.14 96.3702C164.105 98.8646 152.332 104.798 156.022 108.584C159.711 112.369 158.347 110.854 157.491 114.975C156.635 119.096 150.393 123.458 157.491 123.414C164.588 123.371 207.416 122.76 206.192 117.875C204.969 112.99 204.988 114.23 203.143 111.167C201.298 108.104 200.056 109.816 200.677 105.296C201.298 100.776 199.281 97.2802 200.686 95.2801C202.842 92.21 200.669 70.0487 198.636 70.6403L193.956 39.0981Z" fill="#EE7D12"/>
<path d="M190.64 39.2566C190.64 39.2566 199.134 35.6545 202.193 42.3719C203.17 44.5174 203.993 49.9065 204.786 48.7114C205.579 47.5164 204.814 50.1362 205.304 50.1395C205.742 50.1423 206.416 49.4352 205.907 51.8713C205.747 52.6704 205.793 53.4968 206.04 54.2734C206.287 55.05 206.727 55.7515 207.319 56.3126L192.555 65.1382L190.64 39.2566Z" fill="#EE7D12"/>
<path d="M158.724 45.3633C158.724 45.3633 150.229 41.7612 147.17 48.4786C146.31 50.3678 146.524 54.5656 144.848 54.0943C143.173 53.623 144.362 55.3987 144.141 56.0156C143.895 56.7031 144.97 58.6488 143.46 57.968C141.949 57.2871 142.044 62.4193 142.044 62.4193L156.808 71.2449L158.724 45.3633Z" fill="#EE7D12"/>
<path d="M162.752 35.3027L160.304 39.5775C160.304 39.5775 153.574 43.2415 153.574 43.8522C153.574 44.4628 154.798 49.4492 153.574 53.3681C152.351 57.287 155.91 64.657 156.633 70.7218C159.692 96.3701 150.595 105.689 148.68 122.018L168.094 127.678C168.094 127.678 171.317 84.7673 171.317 74.9965C171.317 65.2258 162.752 35.3027 162.752 35.3027Z" fill="black"/>
<path d="M180.494 33.4707L185.496 36.3101C185.496 36.3101 192.041 37.7504 192.119 38.3561C192.197 38.9618 192.22 45.3989 193.935 49.1297C195.651 52.8605 195.178 54.8443 199.797 65.8733C202.157 71.5084 207.575 116.594 207.575 116.594L189.044 124.682C189.044 124.682 180.356 82.5338 179.106 72.8431C177.855 63.1523 180.494 33.4707 180.494 33.4707Z" fill="black"/>
<path d="M167.989 27.6485C174.975 27.6485 180.639 21.9952 180.639 15.0215C180.639 8.04782 174.975 2.39453 167.989 2.39453C161.002 2.39453 155.338 8.04782 155.338 15.0215C155.338 21.9952 161.002 27.6485 167.989 27.6485Z" fill="#FFB6B6"/>
<path d="M176.314 24.8323C173.323 22.4992 177.411 12.2358 172.473 14.4265C172.473 14.4265 166.437 10.5928 165.224 13.1121C163.82 16.0292 158.827 14.7058 155.759 13.6762C156.001 13.1169 156.172 12.5301 156.27 11.9291C155.703 12.3744 155.104 12.7754 154.475 13.1285C154.054 12.9038 153.681 12.5986 153.378 12.2303C153.079 11.8883 152.892 11.4631 152.842 11.0117C152.792 10.5604 152.881 10.1046 153.098 9.70555C153.609 8.92239 154.662 8.68141 155.282 7.98586C155.354 7.88805 155.401 7.77435 155.418 7.65452C155.436 7.53468 155.425 7.41229 155.385 7.29785C155.311 7.01801 155.3 6.72534 155.352 6.4407C155.405 6.15606 155.519 5.88645 155.688 5.65109C155.857 5.41572 156.075 5.22039 156.328 5.07901C156.581 4.93762 156.863 4.85367 157.152 4.83312C157.268 4.83667 157.384 4.81158 157.488 4.76006C158.008 4.44207 158.489 4.06333 158.92 3.63186C158.201 3.66472 159.08 -0.726954 166.207 0.104846C168.001 0.0391317 168.938 2.01424 170.705 2.32642C174.987 -0.116275 178.81 3.40733 180.67 6.77548C182.531 10.1437 184.544 20.9985 176.314 24.8323Z" fill="black"/>
<path d="M122.335 6.71802H8.93437C6.77698 6.71981 4.7084 7.57572 3.18247 9.09795C1.65655 10.6202 0.797907 12.6844 0.794922 14.8378V116.829C0.797727 118.983 1.65617 121.048 3.18201 122.571C4.70784 124.094 6.77652 124.951 8.93437 124.954H122.335C124.492 124.951 126.56 124.094 128.085 122.57C129.611 121.047 130.468 118.983 130.47 116.829V14.8378C130.468 12.6849 129.61 10.6207 128.085 9.0984C126.56 7.57608 124.492 6.71998 122.335 6.71802Z" fill="white"/>
<path d="M70.5206 30.1266H58.4056C57.8106 30.1266 57.2399 29.8906 56.8192 29.4707C56.3985 29.0507 56.1621 28.4812 56.1621 27.8873C56.1621 27.2934 56.3985 26.7238 56.8192 26.3038C57.2399 25.8839 57.8106 25.6479 58.4056 25.6479H70.5206C71.1156 25.6479 71.6862 25.8839 72.107 26.3038C72.5277 26.7238 72.7641 27.2934 72.7641 27.8873C72.7641 28.4812 72.5277 29.0507 72.107 29.4707C71.6862 29.8906 71.1156 30.1266 70.5206 30.1266Z" fill="#5392FC"/>
<path d="M231.321 132.514L219.238 131.63C218.644 131.587 218.093 131.31 217.704 130.86C217.315 130.411 217.12 129.826 217.164 129.233C217.207 128.641 217.484 128.09 217.935 127.702C218.385 127.314 218.971 127.12 219.565 127.164L231.647 128.048C232.241 128.091 232.793 128.368 233.182 128.818C233.571 129.267 233.765 129.853 233.721 130.445C233.678 131.037 233.401 131.588 232.951 131.976C232.5 132.364 231.914 132.558 231.321 132.514Z" fill="#5392FC"/>
<path d="M101.93 77.0323H26.9964C26.4014 77.0323 25.8308 76.7964 25.41 76.3764C24.9893 75.9565 24.7529 75.3869 24.7529 74.793C24.7529 74.1991 24.9893 73.6295 25.41 73.2096C25.8308 72.7896 26.4014 72.5537 26.9964 72.5537H101.93C102.525 72.5537 103.095 72.7896 103.516 73.2096C103.937 73.6295 104.173 74.1991 104.173 74.793C104.173 75.3869 103.937 75.9565 103.516 76.3764C103.095 76.7964 102.525 77.0323 101.93 77.0323Z" fill="#EBEBEB"/>
<path d="M101.93 91.8116H26.9964C26.4014 91.8116 25.8308 91.5757 25.41 91.1557C24.9893 90.7358 24.7529 90.1662 24.7529 89.5723C24.7529 88.9784 24.9893 88.4088 25.41 87.9889C25.8308 87.5689 26.4014 87.333 26.9964 87.333H101.93C102.525 87.333 103.095 87.5689 103.516 87.9889C103.937 88.4088 104.173 88.9784 104.173 89.5723C104.173 90.1662 103.937 90.7358 103.516 91.1557C103.095 91.5757 102.525 91.8116 101.93 91.8116Z" fill="#EBEBEB"/>
<path d="M101.93 106.591H26.9964C26.4014 106.591 25.8308 106.355 25.41 105.935C24.9893 105.515 24.7529 104.946 24.7529 104.352C24.7529 103.758 24.9893 103.188 25.41 102.768C25.8308 102.348 26.4014 102.113 26.9964 102.113H101.93C102.525 102.113 103.095 102.348 103.516 102.768C103.937 103.188 104.173 103.758 104.173 104.352C104.173 104.946 103.937 105.515 103.516 105.935C103.095 106.355 102.525 106.591 101.93 106.591Z" fill="#EBEBEB"/>
<path d="M86.6136 36.8455H42.3133C40.1559 36.8473 38.0873 37.7032 36.5614 39.2254C35.0355 40.7476 34.1768 42.8118 34.1738 44.9652V58.2801C34.1766 60.4339 35.0351 62.4987 36.5609 64.0217C38.0867 65.5447 40.1554 66.4015 42.3133 66.4043H86.6136C88.771 66.4014 90.8391 65.5443 92.3642 64.0213C93.8893 62.4982 94.7468 60.4335 94.7486 58.2801V44.9652C94.7466 42.8123 93.8889 40.7482 92.3638 39.2258C90.8386 37.7035 88.7706 36.8474 86.6136 36.8455ZM93.8512 58.2801C93.8512 60.1972 93.0882 62.0358 91.7301 63.3914C90.3719 64.747 88.5299 65.5086 86.6092 65.5086H54.8084C49.5738 65.5086 44.5535 63.4331 40.8521 59.7386C37.1507 56.0441 35.0712 51.0332 35.0712 45.8084V44.9652C35.0743 43.0494 35.8384 41.2131 37.196 39.8588C38.5536 38.5046 40.3939 37.743 42.3133 37.7412H86.6136C88.5325 37.7432 90.3723 38.505 91.7291 39.8593C93.086 41.2136 93.8492 43.0499 93.8512 44.9652V58.2801Z" fill="#EBEBEB"/>
<path d="M64.959 56.4307C69.1718 56.4307 72.5869 53.0219 72.5869 48.817C72.5869 44.6121 69.1718 41.2034 64.959 41.2034C60.7462 41.2034 57.3311 44.6121 57.3311 48.817C57.3311 53.0219 60.7462 56.4307 64.959 56.4307Z" fill="#E6E6E6"/>
<path d="M82.5081 66.4044L48.3574 66.2835L59.1263 63.5963L60.4679 59.1759L70.7925 59.1177L73.8841 63.4888L81.6915 65.5087L82.4005 65.6923L82.5081 66.4044Z" fill="#E6E6E6"/>
<path d="M60.6238 53.678C62.2607 52.4009 60.0231 46.783 62.7262 47.9822C62.7262 47.9822 66.03 45.8837 66.6938 47.2627C67.4624 48.8594 70.1958 48.1351 71.8747 47.5715C71.7428 47.2653 71.649 46.9441 71.5954 46.6151C71.9054 46.8589 72.2337 47.0784 72.5775 47.2717C72.8081 47.1487 73.0122 46.9816 73.1782 46.78C73.342 46.5928 73.4445 46.36 73.4719 46.113C73.4993 45.8659 73.4502 45.6165 73.3314 45.398C73.0521 44.9693 72.4754 44.8374 72.1361 44.4567C72.0968 44.4032 72.0712 44.3409 72.0614 44.2753C72.0516 44.2097 72.0578 44.1427 72.0797 44.0801C72.1201 43.9269 72.1262 43.7667 72.0976 43.6109C72.0689 43.4551 72.0061 43.3075 71.9138 43.1787C71.8214 43.0499 71.7018 42.9429 71.5633 42.8656C71.4248 42.7882 71.2709 42.7422 71.1126 42.731C71.0489 42.7329 70.9858 42.7192 70.9287 42.691C70.6437 42.5169 70.3806 42.3096 70.1448 42.0734C70.5382 42.0914 70.0571 39.6875 66.1562 40.1428C65.1741 40.1069 64.6612 41.188 63.6941 41.3589C61.3498 40.0218 59.2573 41.9505 58.2391 43.7942C57.2209 45.6378 56.1186 51.5795 60.6238 53.678Z" fill="#E6E6E6"/>
<path d="M122.335 6.71802H8.93437C6.77698 6.71981 4.7084 7.57572 3.18247 9.09795C1.65655 10.6202 0.797907 12.6844 0.794922 14.8378V116.829C0.797727 118.983 1.65617 121.048 3.18201 122.571C4.70784 124.094 6.77652 124.951 8.93437 124.954H122.335C124.492 124.951 126.56 124.094 128.085 122.57C129.611 121.047 130.468 118.983 130.47 116.829V14.8378C130.468 12.6849 129.61 10.6207 128.085 9.0984C126.56 7.57608 124.492 6.71998 122.335 6.71802ZM129.572 116.829C129.572 118.746 128.809 120.585 127.451 121.941C126.093 123.296 124.251 124.058 122.33 124.058H60.1137C52.4417 124.058 44.8448 122.55 37.7568 119.619C30.6688 116.689 24.2285 112.393 18.8035 106.979C13.3786 101.564 9.07532 95.1356 6.13938 88.0609C3.20343 80.9861 1.69232 73.4035 1.69233 65.7458V14.8378C1.69538 12.922 2.4595 11.0856 3.81712 9.73139C5.17473 8.37715 7.01501 7.6156 8.93437 7.61374H122.335C124.254 7.61578 126.093 8.37754 127.45 9.73186C128.807 11.0862 129.57 12.9225 129.572 14.8378V116.829Z" fill="#EBEBEB"/>
<path d="M240.809 232.862L99.307 233C99.1657 232.999 99.0305 232.943 98.9309 232.843C98.8313 232.743 98.7754 232.608 98.7754 232.467C98.7754 232.326 98.8313 232.191 98.9309 232.091C99.0305 231.991 99.1657 231.934 99.307 231.934L240.809 231.796C240.95 231.797 241.085 231.853 241.185 231.953C241.284 232.053 241.34 232.188 241.34 232.329C241.34 232.47 241.284 232.605 241.185 232.705C241.085 232.805 240.95 232.862 240.809 232.862Z" fill="black"/>
</g>
<defs>
<clipPath id="clip0_2565_2077">
<rect width="241.412" height="233" fill="white" transform="translate(0.794922)"/>
</clipPath>
</defs>
</svg>
